<?xml version="1.0" encoding="UTF-8" standalone="no"?><!DOCTYPE svg PUBLIC "-//W3C//DTD SVG 1.1//EN" "http://www.w3.org/Graphics/SVG/1.1/DTD/svg11.dtd"><svg width="100%" height="100%" viewBox="0 0 474 121" version="1.1" xmlns="http://www.w3.org/2000/svg" xmlns:xlink="http://www.w3.org/1999/xlink" xml:space="preserve" xmlns:serif="http://www.serif.com/" style="fill-rule:evenodd;clip-rule:evenodd;stroke-linejoin:round;stroke-miterlimit:1.41421;"><path d="M98.69,18.976c0,0 -36.305,-39.359 -75.296,-0.177c0,0 -22.486,1.197 -22.032,30.295c0,0 -0.777,33.867 16.219,33.017c0,0 6.364,6.802 14.065,22.085c0,0 7.53,15.681 30.431,15.513c0,0 18.947,1.124 27.313,-15.261c0,0 9.576,-17.196 14.87,-22.254c0,0 13.889,0.457 15.867,-18.847c0,0 1.805,-22.379 -3.147,-31.941c0,0 -2.791,-10.941 -18.29,-12.43Z" style="fill:#f49531;"/><path d="M88.481,18.539c0,0 -25.729,-24.543 -55.029,-0.399l55.029,0.399Z" style="fill:#fff;"/><path d="M23.835,25.833l73.948,0.072c0,0 14.108,1.164 14.714,14.904c0,0 2.146,13.921 -0.474,26.159c0,0 -3.266,11.905 -15.075,7.548c0,0 -8.863,-4.856 -16.861,-4.78l-37.496,-0.157c0,0 -7.112,-1.156 -17.335,4.681c0,0 -12.636,5.981 -15.464,-7.762c0,0 -2.823,-14.839 0.052,-27.434c0,0 1.873,-13.914 13.991,-13.231Z" style="fill:#fff;"/><path d="M53.958,41.077l-0.13,15.689c0,0 -0.639,5.499 3.909,2.624l14.111,-8.286c0,0 3.402,-2.238 -0.438,-4.261l-13.575,-8.298c0,0 -3.965,-2.567 -3.877,2.532Z" style="fill:#f49531;"/><path d="M95.699,82.048c0,0 -6.062,-3.722 -16.975,-4.838l-34.417,-0.333c0,0 -7.947,-0.723 -17.876,5.462c0,0 6.611,9.972 8.836,14.538c0,0 8.657,17.58 27.327,15.653c0,0 13.807,0.808 21.186,-11.743c0,0 6.14,-11.926 11.919,-18.739Z" style="fill:#fff;"/><path d="M48.167,89.714c0,0 -2.249,-1.928 -4.311,-0.264c0,0 -1.774,2.121 -0.073,3.824c0,0 7.078,7.722 17.137,7.143c0,0 11.616,-0.414 17.16,-6.952c0,0 1.631,-2.168 0.049,-4.134c0,0 -1.278,-1.543 -3.978,0.659c0,0 -13.518,11.134 -25.984,-0.276Z" style="fill:#f49531;"/><path d="M143.159,59.867c5.244,0 8.702,-3.23 8.702,-8.17l0,-0.304c0,-0.19 -0.19,-0.266 -0.456,-0.266l-4.446,-0.19c-0.304,0 -0.456,0.114 -0.456,0.418l0,0.494c0,2.052 -1.33,3.42 -3.344,3.42c-2.014,0 -3.344,-1.368 -3.344,-3.42l0,-11.134c0,-2.09 1.33,-3.458 3.344,-3.458c2.014,0 3.344,1.368 3.344,3.458l0,0.494c0,0.304 0.152,0.418 0.456,0.418l4.446,-0.19c0.266,0 0.456,-0.228 0.456,-0.494l0,-0.19c0,-4.902 -3.458,-8.094 -8.702,-8.094c-5.244,0 -8.702,3.268 -8.702,8.284l0,10.564c0,5.054 3.458,8.36 8.702,8.36Z" style="fill:#2e335d;fill-rule:nonzero;"/><path d="M158.131,59.715c1.976,0 3.382,-1.482 3.382,-3.306c0,-1.824 -1.672,-3.268 -3.382,-3.268c-1.672,0 -3.344,1.444 -3.344,3.268c0,1.824 1.406,3.306 3.344,3.306Z" style="fill:#2e335d;fill-rule:nonzero;"/><path d="M173.863,59.867c5.244,0 8.702,-3.382 8.702,-8.474l0,-17.974c0,-0.266 -0.19,-0.456 -0.456,-0.456l-4.446,0c-0.266,0 -0.456,0.19 -0.456,0.456l0,18.24c0,2.166 -1.33,3.61 -3.344,3.61c-2.014,0 -3.344,-1.444 -3.344,-3.61l0,-18.24c0,-0.266 -0.19,-0.456 -0.456,-0.456l-4.446,0c-0.266,0 -0.456,0.19 -0.456,0.456l0,17.974c0,5.092 3.496,8.474 8.702,8.474Z" style="fill:#2e335d;fill-rule:nonzero;"/><path d="M189.139,59.715c1.976,0 3.382,-1.482 3.382,-3.306c0,-1.824 -1.672,-3.268 -3.382,-3.268c-1.672,0 -3.344,1.444 -3.344,3.268c0,1.824 1.406,3.306 3.344,3.306Z" style="fill:#2e335d;fill-rule:nonzero;"/><path d="M220.109,37.105l0,-3.686c0,-0.266 -0.19,-0.456 -0.456,-0.456l-15.238,0c-0.266,0 -0.456,0.19 -0.456,0.456l0,25.688c0,0.266 0.19,0.456 0.456,0.456l4.446,0c0.266,0 0.456,-0.19 0.456,-0.456l0,-10.45c0,-0.114 0.076,-0.19 0.19,-0.19l6.308,0c0.266,0 0.456,-0.19 0.456,-0.456l0,-3.686c0,-0.266 -0.19,-0.456 -0.456,-0.456l-6.308,0c-0.114,0 -0.19,-0.076 -0.19,-0.19l0,-5.928c0,-0.114 0.076,-0.19 0.19,-0.19l10.146,0c0.266,0 0.456,-0.19 0.456,-0.456Z" style="fill:#2e335d;fill-rule:nonzero;"/><path d="M231.319,40.487l0,11.856c0,1.786 -0.95,2.926 -2.47,2.926c-1.558,0 -2.394,-1.102 -2.394,-2.85l0,-11.932c0,-0.266 -0.19,-0.456 -0.456,-0.456l-4.446,0c-0.266,0 -0.456,0.19 -0.456,0.456l0,13.186c0,4.256 2.698,6.156 5.928,6.156c1.748,0 3.154,-0.532 4.066,-1.748c0.114,-0.114 0.228,-0.076 0.228,0.076l0,0.95c0,0.266 0.19,0.456 0.456,0.456l4.446,0c0.266,0 0.456,-0.19 0.456,-0.456l0,-18.62c0,-0.266 -0.19,-0.456 -0.456,-0.456l-4.446,0c-0.266,0 -0.456,0.19 -0.456,0.456Z" style="fill:#2e335d;fill-rule:nonzero;"/><path d="M247.279,59.829c4.56,0 7.6,-2.166 7.6,-5.852c0,-3.61 -3.04,-4.902 -5.7,-5.776c-2.166,-0.76 -4.332,-1.064 -4.332,-2.546c0,-0.95 0.912,-1.71 2.28,-1.71c1.482,0 2.432,0.798 2.432,1.862l0,0.266c0,0.152 0.19,0.304 0.456,0.304l4.066,0c0.266,0 0.456,-0.152 0.456,-0.418c0,-3.724 -2.926,-6.194 -7.486,-6.194c-4.37,0 -7.334,2.28 -7.334,6.042c0,3.61 2.812,4.978 5.13,5.776c2.28,0.912 4.674,1.102 4.674,2.584c0,0.95 -0.912,1.672 -2.28,1.672c-1.482,0 -2.584,-0.798 -2.584,-1.9l0,-0.266c0,-0.152 -0.19,-0.266 -0.456,-0.266l-4.218,0c-0.266,0 -0.456,0.19 -0.456,0.456l0,0.304c0,3.344 3.002,5.662 7.752,5.662Z" style="fill:#2e335d;fill-rule:nonzero;"/><path d="M260.389,38.169c1.9,0 3.192,-1.292 3.192,-3.192c0,-1.862 -1.292,-3.154 -3.192,-3.154c-1.9,0 -3.192,1.292 -3.192,3.154c0,1.9 1.292,3.192 3.192,3.192Zm-2.242,21.394l4.446,0c0.266,0 0.456,-0.19 0.456,-0.456l0,-18.62c0,-0.266 -0.19,-0.456 -0.456,-0.456l-4.446,0c-0.266,0 -0.456,0.19 -0.456,0.456l0,18.62c0,0.266 0.19,0.456 0.456,0.456Z" style="fill:#2e335d;fill-rule:nonzero;"/><path d="M274.525,59.867c4.446,0 7.334,-2.432 7.904,-6.384c0.152,-1.064 0.266,-2.546 0.266,-3.762c0,-1.216 -0.114,-2.736 -0.304,-3.838c-0.57,-3.724 -3.458,-6.156 -7.828,-6.156c-4.446,0 -7.334,2.432 -7.942,6.194c-0.19,1.064 -0.266,2.622 -0.266,3.838c0,1.216 0.114,2.736 0.266,3.8c0.57,3.914 3.496,6.308 7.904,6.308Zm0,-4.598c-1.406,0 -2.394,-0.988 -2.66,-2.508c-0.076,-0.912 -0.152,-1.938 -0.152,-3.002c0,-1.064 0.076,-2.09 0.19,-2.964c0.228,-1.482 1.178,-2.47 2.622,-2.47c1.406,0 2.394,0.95 2.622,2.47c0.114,0.874 0.152,1.9 0.152,2.964c0,1.026 -0.038,2.09 -0.152,3.002c-0.228,1.52 -1.216,2.508 -2.622,2.508Z" style="fill:#2e335d;fill-rule:nonzero;"/><path d="M295.387,39.727c-1.558,0 -3.002,0.494 -4.028,1.824c-0.152,0.152 -0.266,0.114 -0.266,-0.038l0,-1.026c0,-0.266 -0.19,-0.456 -0.456,-0.456l-4.446,0c-0.266,0 -0.456,0.19 -0.456,0.456l0,18.62c0,0.266 0.19,0.456 0.456,0.456l4.446,0c0.266,0 0.456,-0.19 0.456,-0.456l0,-11.894c0,-1.748 0.95,-2.888 2.47,-2.888c1.482,0 2.394,1.102 2.394,2.85l0,11.932c0,0.266 0.19,0.456 0.456,0.456l4.446,0c0.266,0 0.456,-0.19 0.456,-0.456l0,-12.692c0,-4.18 -2.204,-6.688 -5.928,-6.688Z" style="fill:#2e335d;fill-rule:nonzero;"/><path d="M135.728,86.295c0.031,0 0.068,0.001 0.11,0.004c0.041,0.002 0.096,0.004 0.164,0.004c0.656,0 1.132,-0.88 1.429,-2.641l0.008,-0.062l0.82,-4.836c0.068,-0.417 0.111,-0.7 0.129,-0.848c0.019,-0.148 0.028,-0.269 0.028,-0.363c0,-0.214 -0.076,-0.369 -0.227,-0.465c-0.151,-0.096 -0.396,-0.145 -0.734,-0.145l-0.078,0l0.132,-0.671c0.766,0.026 1.429,0.045 1.989,0.058c0.56,0.013 1.058,0.02 1.496,0.02c0.594,0 1.25,-0.007 1.969,-0.02c0.718,-0.013 1.544,-0.032 2.476,-0.058c-0.109,0.427 -0.2,0.848 -0.273,1.265c-0.073,0.417 -0.125,0.833 -0.157,1.25l-0.703,0.031c0.006,-0.088 0.009,-0.169 0.012,-0.242c0.003,-0.073 0.004,-0.143 0.004,-0.211c0,-0.422 -0.119,-0.705 -0.355,-0.851c-0.237,-0.146 -0.924,-0.219 -2.059,-0.219c-0.042,0 -0.218,0.004 -0.527,0.012c-0.31,0.007 -0.593,0.014 -0.848,0.019c-0.078,0.412 -0.193,1.046 -0.344,1.903c-0.151,0.856 -0.265,1.503 -0.344,1.941c0.099,0 0.25,0.003 0.454,0.008c0.703,0.015 1.19,0.023 1.46,0.023c0.542,0 0.902,-0.066 1.079,-0.199c0.177,-0.133 0.309,-0.402 0.398,-0.809l0.688,0.094c-0.146,0.511 -0.263,1.013 -0.352,1.508c-0.089,0.495 -0.148,0.99 -0.18,1.484l-0.679,0.016c0,-0.052 0.001,-0.109 0.004,-0.172c0.002,-0.062 0.003,-0.154 0.003,-0.273c0,-0.302 -0.102,-0.509 -0.308,-0.621c-0.206,-0.112 -0.642,-0.168 -1.309,-0.168c-0.109,0 -0.324,0.002 -0.644,0.007c-0.321,0.006 -0.585,0.008 -0.793,0.008l-0.414,2.414c-0.037,0.198 -0.064,0.375 -0.082,0.532c-0.019,0.156 -0.028,0.283 -0.028,0.382c0,0.328 0.077,0.558 0.231,0.688c0.153,0.13 0.433,0.195 0.84,0.195l0.25,0l-0.094,0.656c-0.485,-0.036 -0.925,-0.063 -1.32,-0.082c-0.396,-0.018 -0.74,-0.027 -1.032,-0.027c-0.224,0 -0.508,0.008 -0.851,0.023c-0.344,0.016 -0.86,0.045 -1.547,0.086l0.109,-0.648Z" style="fill:#2e335d;fill-rule:nonzero;"/><path d="M153.511,85.6l-1.008,0.882c-0.261,0.219 -0.492,0.381 -0.695,0.485c-0.204,0.104 -0.399,0.156 -0.586,0.156c-0.308,0 -0.558,-0.124 -0.75,-0.371c-0.193,-0.247 -0.289,-0.574 -0.289,-0.98c0,-0.136 0.005,-0.274 0.015,-0.415c0.011,-0.14 0.026,-0.278 0.047,-0.414c-0.927,0.901 -1.605,1.5 -2.035,1.797c-0.43,0.297 -0.79,0.446 -1.082,0.446c-0.349,0 -0.642,-0.157 -0.879,-0.469c-0.237,-0.313 -0.355,-0.711 -0.355,-1.195c0,-0.428 0.148,-1.222 0.445,-2.383c0.036,-0.141 0.065,-0.25 0.086,-0.328c0.13,-0.516 0.224,-0.899 0.281,-1.149c0.057,-0.25 0.086,-0.414 0.086,-0.492c0,-0.141 -0.026,-0.249 -0.078,-0.324c-0.052,-0.076 -0.128,-0.114 -0.227,-0.114c-0.073,0 -0.2,0.037 -0.383,0.11c-0.182,0.073 -0.38,0.172 -0.593,0.297l-0.211,-0.547l0.258,-0.164c1.073,-0.693 1.755,-1.039 2.046,-1.039c0.292,0 0.528,0.11 0.708,0.332c0.179,0.221 0.269,0.511 0.269,0.871c0,0.443 -0.138,1.161 -0.414,2.156c-0.276,0.995 -0.414,1.701 -0.414,2.117c0,0.209 0.036,0.365 0.109,0.469c0.073,0.104 0.185,0.156 0.336,0.156c0.172,0 0.438,-0.13 0.797,-0.39c0.359,-0.261 0.813,-0.654 1.359,-1.18c0.131,-0.599 0.256,-1.233 0.375,-1.902c0.12,-0.67 0.248,-1.418 0.383,-2.246l1.953,-0.383c-0.057,0.208 -0.139,0.552 -0.246,1.031c-0.106,0.479 -0.233,1.086 -0.379,1.82l-0.195,0.946c-0.109,0.552 -0.19,0.993 -0.242,1.324c-0.052,0.331 -0.078,0.577 -0.078,0.738c0,0.146 0.025,0.257 0.074,0.332c0.049,0.076 0.121,0.113 0.215,0.113c0.088,0 0.223,-0.057 0.402,-0.171c0.18,-0.115 0.397,-0.287 0.653,-0.516l0.242,0.594Z" style="fill:#2e335d;fill-rule:nonzero;"/><path d="M160.16,80.99l-0.492,0.414c-0.317,-0.39 -0.601,-0.672 -0.851,-0.843c-0.25,-0.172 -0.506,-0.258 -0.766,-0.258c-0.245,0 -0.45,0.073 -0.617,0.219c-0.167,0.145 -0.25,0.322 -0.25,0.531c0,0.208 0.086,0.411 0.258,0.609c0.172,0.198 0.513,0.472 1.023,0.82l0.125,0.079c1.037,0.682 1.555,1.299 1.555,1.851c0,0.74 -0.33,1.384 -0.988,1.934c-0.659,0.549 -1.445,0.824 -2.356,0.824c-0.583,0 -1.068,-0.113 -1.453,-0.34c-0.386,-0.226 -0.578,-0.504 -0.578,-0.832c0,-0.125 0.028,-0.239 0.086,-0.344c0.057,-0.104 0.151,-0.208 0.281,-0.312l0.5,-0.399c0.339,0.459 0.648,0.787 0.93,0.985c0.281,0.198 0.578,0.297 0.89,0.297c0.287,0 0.524,-0.082 0.711,-0.246c0.188,-0.165 0.281,-0.372 0.281,-0.622c0,-0.369 -0.45,-0.859 -1.351,-1.468l-0.149,-0.094c-0.562,-0.375 -0.946,-0.704 -1.152,-0.988c-0.206,-0.284 -0.308,-0.601 -0.308,-0.95c0,-0.671 0.325,-1.259 0.976,-1.761c0.651,-0.503 1.435,-0.754 2.352,-0.754c0.463,0 0.856,0.105 1.179,0.316c0.323,0.211 0.485,0.457 0.485,0.739c0,0.104 -0.028,0.208 -0.082,0.312c-0.055,0.104 -0.134,0.198 -0.239,0.281Z" style="fill:#2e335d;fill-rule:nonzero;"/><path d="M165.654,74.912l0.578,0.578c0.13,0.13 0.227,0.254 0.289,0.371c0.063,0.118 0.094,0.239 0.094,0.364c0,0.151 -0.052,0.289 -0.156,0.414c-0.105,0.125 -0.266,0.247 -0.485,0.367l-0.789,0.43l-0.539,-0.586l-0.031,-0.032c-0.245,-0.265 -0.367,-0.494 -0.367,-0.687c0,-0.156 0.049,-0.3 0.148,-0.43c0.099,-0.13 0.25,-0.25 0.453,-0.359l0.805,-0.43Zm0.289,10.078l0.266,0.61c-0.662,0.619 -1.165,1.036 -1.508,1.25c-0.344,0.213 -0.662,0.32 -0.953,0.32c-0.318,0 -0.568,-0.112 -0.75,-0.336c-0.183,-0.224 -0.274,-0.534 -0.274,-0.93c0,-0.338 0.143,-1.078 0.43,-2.218c0.036,-0.146 0.062,-0.253 0.078,-0.321c0.146,-0.578 0.255,-1.047 0.328,-1.406c0.073,-0.359 0.109,-0.617 0.109,-0.773c0,-0.131 -0.033,-0.236 -0.101,-0.317c-0.068,-0.081 -0.156,-0.121 -0.266,-0.121c-0.088,0 -0.2,0.029 -0.336,0.086c-0.135,0.057 -0.312,0.154 -0.531,0.289l-0.258,-0.547l1.078,-0.703c0.245,-0.167 0.476,-0.292 0.692,-0.375c0.216,-0.083 0.41,-0.125 0.582,-0.125c0.318,0 0.571,0.102 0.762,0.305c0.19,0.203 0.285,0.476 0.285,0.82c0,0.255 -0.117,0.849 -0.352,1.781c-0.094,0.37 -0.164,0.662 -0.211,0.875c-0.146,0.599 -0.248,1.058 -0.308,1.375c-0.06,0.318 -0.09,0.547 -0.09,0.688c0,0.146 0.026,0.259 0.078,0.34c0.052,0.08 0.128,0.121 0.226,0.121c0.099,0 0.227,-0.052 0.383,-0.156c0.157,-0.105 0.37,-0.282 0.641,-0.532Z" style="fill:#2e335d;fill-rule:nonzero;"/><path d="M170.843,81.467l1.07,-0.985c0.51,-0.479 0.892,-0.786 1.144,-0.921c0.253,-0.136 0.51,-0.204 0.77,-0.204c0.417,0 0.746,0.144 0.988,0.43c0.242,0.287 0.364,0.677 0.364,1.172c0,0.49 -0.116,1.225 -0.348,2.207c-0.232,0.982 -0.348,1.676 -0.348,2.082c0,0.146 0.025,0.257 0.074,0.332c0.05,0.076 0.122,0.113 0.215,0.113c0.063,0 0.136,-0.02 0.219,-0.062c0.083,-0.042 0.167,-0.099 0.25,-0.172l0.492,-0.453l0.274,0.578l-0.719,0.656c-0.344,0.308 -0.641,0.534 -0.891,0.68c-0.25,0.146 -0.471,0.219 -0.664,0.219c-0.333,0 -0.595,-0.127 -0.785,-0.379c-0.19,-0.253 -0.285,-0.603 -0.285,-1.051c0,-0.448 0.112,-1.155 0.336,-2.121c0.224,-0.966 0.336,-1.665 0.336,-2.098c0,-0.172 -0.044,-0.308 -0.133,-0.41c-0.089,-0.101 -0.203,-0.152 -0.344,-0.152c-0.271,0 -0.833,0.37 -1.687,1.109c-0.209,0.182 -0.373,0.326 -0.492,0.43l-0.493,2.687c-0.078,0.396 -0.134,0.711 -0.168,0.946c-0.033,0.234 -0.058,0.455 -0.074,0.664l-1.953,0.375c0.328,-1.417 0.586,-2.63 0.773,-3.641c0.188,-1.01 0.282,-1.68 0.282,-2.008c0,-0.213 -0.035,-0.379 -0.106,-0.496c-0.07,-0.117 -0.168,-0.176 -0.293,-0.176c-0.093,0 -0.333,0.112 -0.718,0.336l-0.055,0.024l-0.235,-0.555c0.141,-0.094 0.336,-0.226 0.586,-0.398c0.823,-0.578 1.407,-0.868 1.75,-0.868c0.271,0 0.497,0.123 0.676,0.368c0.18,0.244 0.27,0.56 0.27,0.945c0,0.104 -0.007,0.223 -0.02,0.355c-0.013,0.133 -0.032,0.28 -0.058,0.442Z" style="fill:#2e335d;fill-rule:nonzero;"/><path d="M179.734,87.17c-0.703,0.365 -1.173,0.66 -1.41,0.887c-0.237,0.226 -0.355,0.47 -0.355,0.73c0,0.354 0.213,0.66 0.64,0.918c0.428,0.258 0.956,0.387 1.586,0.387c0.62,0 1.127,-0.123 1.52,-0.367c0.393,-0.245 0.59,-0.552 0.59,-0.922c0,-0.417 -0.63,-0.873 -1.891,-1.367c-0.292,-0.115 -0.518,-0.204 -0.68,-0.266Zm1.407,-7.109c-0.469,0 -0.864,0.269 -1.184,0.808c-0.32,0.539 -0.48,1.205 -0.48,1.996c0,0.417 0.084,0.735 0.254,0.953c0.169,0.219 0.42,0.329 0.753,0.329c0.5,0 0.911,-0.256 1.231,-0.766c0.32,-0.511 0.48,-1.164 0.48,-1.961c0,-0.443 -0.089,-0.78 -0.269,-1.012c-0.18,-0.232 -0.442,-0.347 -0.785,-0.347Zm3.984,-0.672l-0.305,1.008c-0.062,0.005 -0.13,0.009 -0.203,0.011c-0.073,0.003 -0.182,0.004 -0.328,0.004c-0.193,0 -0.384,-0.009 -0.574,-0.027c-0.19,-0.018 -0.376,-0.046 -0.559,-0.082c0.266,0.192 0.463,0.411 0.59,0.656c0.128,0.245 0.192,0.534 0.192,0.867c0,0.594 -0.183,1.113 -0.547,1.559c-0.365,0.445 -0.917,0.821 -1.657,1.129c-0.177,0.067 -0.416,0.161 -0.718,0.281c-0.709,0.266 -1.063,0.464 -1.063,0.594c0,0.187 0.474,0.453 1.422,0.797c0.125,0.046 0.216,0.08 0.274,0.101c0.973,0.354 1.614,0.673 1.921,0.957c0.308,0.284 0.461,0.637 0.461,1.059c0,0.745 -0.458,1.401 -1.375,1.969c-0.916,0.567 -2.015,0.851 -3.297,0.851c-0.932,0 -1.69,-0.184 -2.273,-0.551c-0.583,-0.367 -0.875,-0.834 -0.875,-1.402c0,-0.417 0.173,-0.777 0.52,-1.082c0.346,-0.305 1.128,-0.712 2.347,-1.223c-0.505,-0.203 -0.85,-0.375 -1.035,-0.515c-0.185,-0.141 -0.277,-0.295 -0.277,-0.461c0,-0.302 0.586,-0.696 1.758,-1.18c0.156,-0.062 0.278,-0.112 0.367,-0.148c-0.016,0 -0.042,0.002 -0.078,0.007c-0.157,0.016 -0.274,0.024 -0.352,0.024c-0.526,0 -0.952,-0.181 -1.277,-0.543c-0.326,-0.362 -0.489,-0.837 -0.489,-1.426c0,-0.906 0.355,-1.682 1.063,-2.328c0.708,-0.646 1.565,-0.969 2.57,-0.969c0.328,0 0.774,0.038 1.336,0.113c0.563,0.076 0.961,0.114 1.195,0.114c0.183,0 0.378,-0.013 0.586,-0.039c0.209,-0.026 0.435,-0.068 0.68,-0.125Z" style="fill:#2e335d;fill-rule:nonzero;"/><path d="M195.065,81.631c0.052,0.005 0.109,0.009 0.172,0.012c0.062,0.002 0.154,0.004 0.273,0.004c1.037,0 1.839,-0.223 2.407,-0.668c0.567,-0.446 0.851,-1.077 0.851,-1.895c0,-0.604 -0.179,-1.064 -0.539,-1.379c-0.359,-0.315 -0.888,-0.473 -1.586,-0.473c-0.062,0 -0.208,0.006 -0.437,0.016c-0.151,0.005 -0.276,0.011 -0.375,0.016c-0.157,0.823 -0.36,1.963 -0.61,3.422c-0.073,0.427 -0.125,0.742 -0.156,0.945Zm-4,4.656c0.031,0.005 0.069,0.009 0.113,0.012c0.045,0.002 0.106,0.004 0.184,0.004c0.63,0 1.078,-0.779 1.344,-2.336c0.021,-0.12 0.036,-0.211 0.047,-0.274l0.804,-4.523c0.068,-0.396 0.119,-0.734 0.153,-1.016c0.033,-0.281 0.05,-0.487 0.05,-0.617c0,-0.208 -0.074,-0.359 -0.222,-0.453c-0.149,-0.094 -0.392,-0.141 -0.731,-0.141l-0.179,0l0.109,-0.703c0.406,0.032 0.758,0.055 1.055,0.071c0.297,0.015 0.544,0.023 0.742,0.023c0.396,0 0.903,-0.016 1.523,-0.047c0.62,-0.031 1.045,-0.047 1.274,-0.047c1.088,0 1.933,0.231 2.535,0.692c0.601,0.461 0.902,1.105 0.902,1.933c0,0.683 -0.23,1.305 -0.691,1.867c-0.461,0.563 -1.098,0.99 -1.91,1.282l1.007,1.984c0.042,0.089 0.105,0.214 0.188,0.375c0.661,1.328 1.372,1.992 2.133,1.992c0.067,0 0.123,-0.001 0.168,-0.004c0.044,-0.002 0.082,-0.006 0.113,-0.011l-0.141,0.687c-0.182,0.031 -0.368,0.056 -0.558,0.074c-0.19,0.019 -0.382,0.028 -0.574,0.028c-0.526,0 -0.972,-0.075 -1.336,-0.223c-0.365,-0.148 -0.677,-0.379 -0.938,-0.691c-0.292,-0.349 -0.695,-1.118 -1.211,-2.305c-0.281,-0.646 -0.508,-1.154 -0.679,-1.523c-0.157,0.015 -0.312,0.027 -0.465,0.035c-0.154,0.007 -0.309,0.014 -0.465,0.019c-0.052,0 -0.134,-0.004 -0.246,-0.012c-0.112,-0.007 -0.194,-0.011 -0.246,-0.011l-0.305,1.922c-0.047,0.265 -0.082,0.506 -0.105,0.722c-0.024,0.216 -0.036,0.377 -0.036,0.481c0,0.265 0.069,0.457 0.207,0.574c0.138,0.117 0.366,0.176 0.684,0.176l0.195,0l-0.093,0.656c-0.532,-0.031 -0.993,-0.055 -1.383,-0.07c-0.391,-0.016 -0.703,-0.024 -0.938,-0.024c-0.213,0 -0.482,0.005 -0.804,0.016c-0.323,0.01 -0.792,0.031 -1.407,0.062l0.133,-0.656Z" style="fill:#2e335d;fill-rule:nonzero;"/><path d="M204.902,83.311l0.078,-0.039c1.677,-0.844 2.516,-1.524 2.516,-2.04c0,-0.25 -0.091,-0.47 -0.273,-0.66c-0.183,-0.19 -0.396,-0.285 -0.641,-0.285c-0.396,0 -0.742,0.264 -1.039,0.793c-0.297,0.529 -0.511,1.272 -0.641,2.231Zm2.305,-0.352l-2.336,1.117l0,0.211c0,0.49 0.098,0.874 0.293,1.152c0.195,0.279 0.465,0.418 0.809,0.418c0.255,0 0.557,-0.1 0.906,-0.3c0.349,-0.201 0.789,-0.528 1.32,-0.981l0.305,0.656c-0.719,0.678 -1.349,1.172 -1.891,1.485c-0.541,0.312 -1.036,0.469 -1.484,0.469c-0.641,0 -1.156,-0.25 -1.547,-0.75c-0.391,-0.5 -0.586,-1.17 -0.586,-2.008c0,-0.542 0.104,-1.123 0.313,-1.742c0.208,-0.62 0.484,-1.164 0.828,-1.633c0.401,-0.552 0.858,-0.978 1.371,-1.278c0.513,-0.299 1.038,-0.449 1.574,-0.449c0.568,0 1.046,0.171 1.434,0.512c0.388,0.341 0.582,0.751 0.582,1.23c0,0.646 -0.62,1.271 -1.86,1.875l-0.031,0.016Z" style="fill:#2e335d;fill-rule:nonzero;"/><path d="M215.747,80.686c-0.187,-0.131 -0.366,-0.224 -0.535,-0.282c-0.169,-0.057 -0.342,-0.086 -0.519,-0.086c-0.594,0 -1.137,0.438 -1.629,1.313c-0.492,0.875 -0.739,1.872 -0.739,2.992c0,0.359 0.047,0.63 0.141,0.813c0.094,0.182 0.234,0.273 0.422,0.273c0.161,0 0.428,-0.139 0.801,-0.418c0.372,-0.279 0.86,-0.71 1.465,-1.293c0.078,-0.375 0.164,-0.822 0.257,-1.34c0.094,-0.518 0.206,-1.176 0.336,-1.972Zm2.016,-1.485c-0.339,1.735 -0.586,3.078 -0.742,4.031c-0.157,0.954 -0.235,1.605 -0.235,1.954c0,0.161 0.028,0.283 0.082,0.367c0.055,0.083 0.134,0.125 0.239,0.125c0.078,0 0.178,-0.042 0.3,-0.125c0.123,-0.084 0.359,-0.281 0.707,-0.594l0.258,0.625l-0.523,0.492c-0.438,0.406 -0.789,0.693 -1.055,0.86c-0.265,0.166 -0.502,0.25 -0.711,0.25c-0.333,0 -0.59,-0.127 -0.769,-0.379c-0.18,-0.253 -0.27,-0.614 -0.27,-1.082c0,-0.084 0.004,-0.189 0.012,-0.317c0.008,-0.127 0.019,-0.269 0.035,-0.426c-0.927,0.87 -1.608,1.447 -2.043,1.731c-0.435,0.284 -0.819,0.426 -1.152,0.426c-0.438,0 -0.783,-0.19 -1.035,-0.571c-0.253,-0.38 -0.379,-0.901 -0.379,-1.562c0,-0.662 0.106,-1.3 0.32,-1.914c0.214,-0.615 0.523,-1.188 0.93,-1.719c0.489,-0.635 1.035,-1.128 1.636,-1.476c0.602,-0.349 1.21,-0.524 1.825,-0.524c0.203,0 0.406,0.022 0.609,0.066c0.203,0.045 0.414,0.114 0.633,0.208l1.328,-0.446Z" style="fill:#2e335d;fill-rule:nonzero;"/><path d="M223.475,85.6l-0.656,0.593c-0.37,0.334 -0.686,0.575 -0.949,0.723c-0.263,0.148 -0.507,0.223 -0.731,0.223c-0.318,0 -0.578,-0.145 -0.781,-0.434c-0.203,-0.289 -0.305,-0.663 -0.305,-1.121c0,-0.344 0.115,-1.083 0.344,-2.219c0.13,-0.635 0.229,-1.138 0.297,-1.508l0.219,-1.265c0.244,-1.302 0.424,-2.294 0.539,-2.977c0.114,-0.682 0.172,-1.12 0.172,-1.312c0,-0.151 -0.046,-0.268 -0.137,-0.352c-0.091,-0.083 -0.218,-0.125 -0.379,-0.125c-0.057,0 -0.162,0.005 -0.313,0.016c-0.057,0.005 -0.101,0.01 -0.132,0.015l-0.086,-0.593c0.5,-0.052 1.017,-0.121 1.55,-0.207c0.534,-0.086 1.085,-0.189 1.653,-0.309c-0.823,4.203 -1.347,6.926 -1.571,8.168c-0.223,1.242 -0.335,1.994 -0.335,2.254c0,0.167 0.032,0.298 0.097,0.394c0.065,0.097 0.15,0.145 0.254,0.145c0.057,0 0.134,-0.027 0.231,-0.082c0.096,-0.055 0.207,-0.134 0.332,-0.238l0.445,-0.367l0.242,0.578Z" style="fill:#2e335d;fill-rule:nonzero;"/><path d="M228.5,74.912l0.578,0.578c0.13,0.13 0.226,0.254 0.289,0.371c0.062,0.118 0.094,0.239 0.094,0.364c0,0.151 -0.052,0.289 -0.157,0.414c-0.104,0.125 -0.265,0.247 -0.484,0.367l-0.789,0.43l-0.539,-0.586l-0.031,-0.032c-0.245,-0.265 -0.367,-0.494 -0.367,-0.687c0,-0.156 0.049,-0.3 0.148,-0.43c0.099,-0.13 0.25,-0.25 0.453,-0.359l0.805,-0.43Zm0.289,10.078l0.265,0.61c-0.661,0.619 -1.164,1.036 -1.507,1.25c-0.344,0.213 -0.662,0.32 -0.953,0.32c-0.318,0 -0.568,-0.112 -0.75,-0.336c-0.183,-0.224 -0.274,-0.534 -0.274,-0.93c0,-0.338 0.143,-1.078 0.43,-2.218c0.036,-0.146 0.062,-0.253 0.078,-0.321c0.146,-0.578 0.255,-1.047 0.328,-1.406c0.073,-0.359 0.109,-0.617 0.109,-0.773c0,-0.131 -0.033,-0.236 -0.101,-0.317c-0.068,-0.081 -0.156,-0.121 -0.266,-0.121c-0.088,0 -0.2,0.029 -0.336,0.086c-0.135,0.057 -0.312,0.154 -0.531,0.289l-0.258,-0.547l1.078,-0.703c0.245,-0.167 0.476,-0.292 0.692,-0.375c0.216,-0.083 0.41,-0.125 0.582,-0.125c0.317,0 0.571,0.102 0.762,0.305c0.19,0.203 0.285,0.476 0.285,0.82c0,0.255 -0.118,0.849 -0.352,1.781c-0.094,0.37 -0.164,0.662 -0.211,0.875c-0.146,0.599 -0.249,1.058 -0.308,1.375c-0.06,0.318 -0.09,0.547 -0.09,0.688c0,0.146 0.026,0.259 0.078,0.34c0.052,0.08 0.127,0.121 0.226,0.121c0.099,0 0.227,-0.052 0.383,-0.156c0.156,-0.105 0.37,-0.282 0.641,-0.532Z" style="fill:#2e335d;fill-rule:nonzero;"/><path d="M234.564,77.436c-0.152,0.573 -0.266,1.02 -0.344,1.343c-0.078,0.323 -0.143,0.618 -0.196,0.883l0.313,0c0.245,0 0.503,-0.004 0.773,-0.012c0.271,-0.007 0.558,-0.019 0.86,-0.035l-0.203,0.922c-0.157,0 -0.327,-0.001 -0.512,-0.004c-0.185,-0.002 -0.462,-0.004 -0.832,-0.004l-0.578,0c-0.224,1.016 -0.397,1.9 -0.52,2.653c-0.122,0.752 -0.183,1.308 -0.183,1.668c0,0.302 0.041,0.535 0.125,0.699c0.083,0.164 0.2,0.246 0.351,0.246c0.089,0 0.229,-0.07 0.422,-0.211c0.193,-0.141 0.505,-0.401 0.938,-0.781l0.289,0.617l-0.032,0.039c-1.26,1.193 -2.114,1.789 -2.562,1.789c-0.412,0 -0.744,-0.189 -0.996,-0.566c-0.253,-0.378 -0.379,-0.882 -0.379,-1.512c0,-0.427 0.069,-1.022 0.207,-1.785c0.138,-0.763 0.348,-1.72 0.629,-2.871c-0.073,0 -0.177,0.002 -0.313,0.008c-0.135,0.005 -0.234,0.007 -0.297,0.007l-0.562,0l0.133,-0.672c0.26,-0.026 0.493,-0.078 0.699,-0.156c0.206,-0.078 0.405,-0.192 0.598,-0.344c0.047,-0.161 0.1,-0.332 0.16,-0.511c0.06,-0.18 0.144,-0.436 0.254,-0.77l1.758,-0.64Z" style="fill:#2e335d;fill-rule:nonzero;"/><path d="M236.291,89.17c0.167,0.224 0.34,0.392 0.52,0.504c0.18,0.112 0.368,0.168 0.566,0.168c0.5,0 0.933,-0.353 1.297,-1.059c0.365,-0.705 0.547,-1.603 0.547,-2.691c0,-1.542 -0.096,-2.778 -0.289,-3.707c-0.193,-0.93 -0.445,-1.395 -0.758,-1.395c-0.078,0 -0.173,0.054 -0.285,0.16c-0.112,0.107 -0.288,0.322 -0.527,0.645l-0.399,-0.5c0.573,-0.807 0.999,-1.337 1.278,-1.59c0.278,-0.252 0.545,-0.379 0.8,-0.379c0.532,0 0.942,0.456 1.231,1.367c0.289,0.912 0.433,2.217 0.433,3.914c0,0.209 -0.005,0.452 -0.015,0.731c-0.011,0.279 -0.026,0.579 -0.047,0.902c0.88,-1.802 1.441,-3.015 1.684,-3.64c0.242,-0.625 0.363,-1.091 0.363,-1.399c0,-0.187 -0.034,-0.346 -0.102,-0.476c-0.067,-0.131 -0.172,-0.245 -0.312,-0.344l0.492,-0.57c0.146,-0.172 0.282,-0.296 0.41,-0.372c0.128,-0.075 0.264,-0.113 0.41,-0.113c0.193,0 0.345,0.073 0.457,0.219c0.112,0.146 0.168,0.346 0.168,0.602c0,0.447 -0.281,1.274 -0.844,2.48c-0.562,1.206 -1.317,2.585 -2.265,4.137c-0.917,1.521 -1.732,2.627 -2.445,3.32c-0.714,0.693 -1.391,1.039 -2.032,1.039c-0.343,0 -0.625,-0.083 -0.843,-0.25c-0.219,-0.167 -0.329,-0.383 -0.329,-0.648c0,-0.11 0.026,-0.211 0.079,-0.305c0.052,-0.094 0.148,-0.206 0.289,-0.336l0.468,-0.414Z" style="fill:#2e335d;fill-rule:nonzero;"/><path d="M254.419,74.912l0.578,0.578c0.13,0.13 0.227,0.254 0.289,0.371c0.063,0.118 0.094,0.239 0.094,0.364c0,0.151 -0.052,0.289 -0.156,0.414c-0.105,0.125 -0.266,0.247 -0.485,0.367l-0.789,0.43l-0.539,-0.586l-0.031,-0.032c-0.245,-0.265 -0.367,-0.494 -0.367,-0.687c0,-0.156 0.049,-0.3 0.148,-0.43c0.099,-0.13 0.25,-0.25 0.453,-0.359l0.805,-0.43Zm0.289,10.078l0.266,0.61c-0.662,0.619 -1.165,1.036 -1.508,1.25c-0.344,0.213 -0.662,0.32 -0.953,0.32c-0.318,0 -0.568,-0.112 -0.75,-0.336c-0.183,-0.224 -0.274,-0.534 -0.274,-0.93c0,-0.338 0.143,-1.078 0.43,-2.218c0.036,-0.146 0.062,-0.253 0.078,-0.321c0.146,-0.578 0.255,-1.047 0.328,-1.406c0.073,-0.359 0.109,-0.617 0.109,-0.773c0,-0.131 -0.033,-0.236 -0.101,-0.317c-0.068,-0.081 -0.156,-0.121 -0.266,-0.121c-0.088,0 -0.2,0.029 -0.336,0.086c-0.135,0.057 -0.312,0.154 -0.531,0.289l-0.258,-0.547l1.078,-0.703c0.245,-0.167 0.476,-0.292 0.692,-0.375c0.216,-0.083 0.41,-0.125 0.582,-0.125c0.318,0 0.571,0.102 0.762,0.305c0.19,0.203 0.285,0.476 0.285,0.82c0,0.255 -0.117,0.849 -0.352,1.781c-0.094,0.37 -0.164,0.662 -0.211,0.875c-0.146,0.599 -0.248,1.058 -0.308,1.375c-0.06,0.318 -0.09,0.547 -0.09,0.688c0,0.146 0.026,0.259 0.078,0.34c0.052,0.08 0.128,0.121 0.226,0.121c0.099,0 0.227,-0.052 0.383,-0.156c0.157,-0.105 0.37,-0.282 0.641,-0.532Z" style="fill:#2e335d;fill-rule:nonzero;"/><path d="M259.608,81.467l1.07,-0.985c0.51,-0.479 0.892,-0.786 1.144,-0.921c0.253,-0.136 0.51,-0.204 0.77,-0.204c0.417,0 0.746,0.144 0.988,0.43c0.242,0.287 0.364,0.677 0.364,1.172c0,0.49 -0.116,1.225 -0.348,2.207c-0.232,0.982 -0.348,1.676 -0.348,2.082c0,0.146 0.025,0.257 0.074,0.332c0.05,0.076 0.122,0.113 0.215,0.113c0.063,0 0.136,-0.02 0.219,-0.062c0.083,-0.042 0.167,-0.099 0.25,-0.172l0.492,-0.453l0.274,0.578l-0.719,0.656c-0.344,0.308 -0.641,0.534 -0.891,0.68c-0.25,0.146 -0.471,0.219 -0.664,0.219c-0.333,0 -0.595,-0.127 -0.785,-0.379c-0.19,-0.253 -0.285,-0.603 -0.285,-1.051c0,-0.448 0.112,-1.155 0.336,-2.121c0.224,-0.966 0.336,-1.665 0.336,-2.098c0,-0.172 -0.044,-0.308 -0.133,-0.41c-0.089,-0.101 -0.203,-0.152 -0.344,-0.152c-0.271,0 -0.833,0.37 -1.687,1.109c-0.209,0.182 -0.373,0.326 -0.492,0.43l-0.493,2.687c-0.078,0.396 -0.134,0.711 -0.168,0.946c-0.033,0.234 -0.058,0.455 -0.074,0.664l-1.953,0.375c0.328,-1.417 0.586,-2.63 0.773,-3.641c0.188,-1.01 0.282,-1.68 0.282,-2.008c0,-0.213 -0.035,-0.379 -0.106,-0.496c-0.07,-0.117 -0.168,-0.176 -0.293,-0.176c-0.093,0 -0.333,0.112 -0.718,0.336l-0.055,0.024l-0.235,-0.555c0.141,-0.094 0.336,-0.226 0.586,-0.398c0.823,-0.578 1.407,-0.868 1.75,-0.868c0.271,0 0.497,0.123 0.676,0.368c0.18,0.244 0.27,0.56 0.27,0.945c0,0.104 -0.007,0.223 -0.02,0.355c-0.013,0.133 -0.032,0.28 -0.058,0.442Z" style="fill:#2e335d;fill-rule:nonzero;"/><path d="M270.031,77.436c-0.151,0.573 -0.266,1.02 -0.344,1.343c-0.078,0.323 -0.143,0.618 -0.195,0.883l0.312,0c0.245,0 0.503,-0.004 0.774,-0.012c0.27,-0.007 0.557,-0.019 0.859,-0.035l-0.203,0.922c-0.156,0 -0.327,-0.001 -0.512,-0.004c-0.185,-0.002 -0.462,-0.004 -0.832,-0.004l-0.578,0c-0.224,1.016 -0.397,1.9 -0.52,2.653c-0.122,0.752 -0.183,1.308 -0.183,1.668c0,0.302 0.042,0.535 0.125,0.699c0.083,0.164 0.2,0.246 0.351,0.246c0.089,0 0.23,-0.07 0.422,-0.211c0.193,-0.141 0.505,-0.401 0.938,-0.781l0.289,0.617l-0.031,0.039c-1.261,1.193 -2.115,1.789 -2.563,1.789c-0.411,0 -0.743,-0.189 -0.996,-0.566c-0.253,-0.378 -0.379,-0.882 -0.379,-1.512c0,-0.427 0.069,-1.022 0.207,-1.785c0.138,-0.763 0.348,-1.72 0.629,-2.871c-0.073,0 -0.177,0.002 -0.312,0.008c-0.136,0.005 -0.235,0.007 -0.297,0.007l-0.563,0l0.133,-0.672c0.26,-0.026 0.493,-0.078 0.699,-0.156c0.206,-0.078 0.405,-0.192 0.598,-0.344c0.047,-0.161 0.1,-0.332 0.16,-0.511c0.06,-0.18 0.145,-0.436 0.254,-0.77l1.758,-0.64Z" style="fill:#2e335d;fill-rule:nonzero;"/><path d="M275.868,86.256c0.594,0 1.094,-0.399 1.5,-1.195c0.406,-0.797 0.609,-1.779 0.609,-2.946c0,-0.599 -0.101,-1.053 -0.304,-1.363c-0.204,-0.31 -0.5,-0.465 -0.891,-0.465c-0.615,0 -1.129,0.389 -1.543,1.168c-0.414,0.779 -0.621,1.759 -0.621,2.942c0,0.609 0.107,1.071 0.32,1.386c0.214,0.315 0.524,0.473 0.93,0.473Zm-3.18,-2c0,-0.708 0.147,-1.393 0.442,-2.055c0.294,-0.661 0.712,-1.239 1.254,-1.734c0.401,-0.375 0.837,-0.659 1.308,-0.852c0.471,-0.192 0.957,-0.289 1.457,-0.289c0.86,0 1.535,0.258 2.028,0.774c0.492,0.515 0.738,1.224 0.738,2.125c0,1.343 -0.436,2.509 -1.309,3.496c-0.872,0.987 -1.918,1.48 -3.137,1.48c-0.859,0 -1.537,-0.264 -2.035,-0.793c-0.497,-0.528 -0.746,-1.246 -0.746,-2.152Z" style="fill:#2e335d;fill-rule:nonzero;"/><path d="M287.644,76.272c0.5,0.031 0.933,0.054 1.301,0.07c0.367,0.015 0.673,0.023 0.918,0.023c0.25,0 0.558,-0.008 0.925,-0.023c0.368,-0.016 0.791,-0.039 1.27,-0.07l-0.109,0.656l-0.18,0c-0.323,0 -0.559,0.045 -0.707,0.136c-0.149,0.092 -0.223,0.239 -0.223,0.442c0,0.073 0.011,0.152 0.031,0.238c0.021,0.086 0.055,0.186 0.102,0.301l1.211,3.492l2.5,-3.523c0.073,-0.11 0.134,-0.227 0.184,-0.352c0.049,-0.125 0.074,-0.226 0.074,-0.305c0,-0.145 -0.056,-0.256 -0.168,-0.332c-0.112,-0.075 -0.275,-0.113 -0.489,-0.113c-0.02,0 -0.053,0.003 -0.097,0.008c-0.044,0.005 -0.077,0.008 -0.098,0.008l0.133,-0.656c0.083,0.005 0.214,0.015 0.391,0.031c0.625,0.041 1.046,0.062 1.265,0.062c0.255,0 0.737,-0.023 1.446,-0.07c0.177,-0.01 0.309,-0.018 0.398,-0.023l-0.125,0.671l-0.102,0c-0.25,0 -0.461,0.047 -0.632,0.141c-0.172,0.094 -0.375,0.297 -0.61,0.609l-3.679,4.836l-0.422,2.555c-0.021,0.115 -0.037,0.219 -0.047,0.313c-0.011,0.093 -0.016,0.161 -0.016,0.203c0,0.25 0.073,0.429 0.219,0.539c0.146,0.109 0.383,0.164 0.711,0.164c0.083,0 0.148,-0.002 0.195,-0.004c0.047,-0.003 0.086,-0.007 0.117,-0.012l-0.109,0.672c-0.661,-0.047 -1.165,-0.079 -1.512,-0.098c-0.346,-0.018 -0.613,-0.027 -0.801,-0.027c-0.234,0 -0.52,0.007 -0.859,0.02c-0.338,0.013 -0.864,0.043 -1.578,0.089l0.133,-0.671c0.041,0.005 0.087,0.009 0.137,0.011c0.049,0.003 0.121,0.004 0.214,0.004c0.386,0 0.659,-0.077 0.821,-0.23c0.161,-0.154 0.286,-0.483 0.375,-0.989l0.422,-2.492l-1.719,-4.562c-0.177,-0.485 -0.34,-0.789 -0.488,-0.914c-0.149,-0.125 -0.364,-0.188 -0.645,-0.188c-0.021,0 -0.053,0.003 -0.098,0.008c-0.044,0.005 -0.082,0.008 -0.113,0.008l0.133,-0.656Z" style="fill:#2e335d;fill-rule:nonzero;"/><path d="M299.864,86.256c0.594,0 1.094,-0.399 1.5,-1.195c0.406,-0.797 0.609,-1.779 0.609,-2.946c0,-0.599 -0.101,-1.053 -0.304,-1.363c-0.204,-0.31 -0.5,-0.465 -0.891,-0.465c-0.615,0 -1.129,0.389 -1.543,1.168c-0.414,0.779 -0.621,1.759 -0.621,2.942c0,0.609 0.107,1.071 0.32,1.386c0.214,0.315 0.524,0.473 0.93,0.473Zm-3.18,-2c0,-0.708 0.147,-1.393 0.442,-2.055c0.294,-0.661 0.712,-1.239 1.253,-1.734c0.402,-0.375 0.838,-0.659 1.309,-0.852c0.471,-0.192 0.957,-0.289 1.457,-0.289c0.859,0 1.535,0.258 2.027,0.774c0.493,0.515 0.739,1.224 0.739,2.125c0,1.343 -0.436,2.509 -1.309,3.496c-0.872,0.987 -1.918,1.48 -3.137,1.48c-0.859,0 -1.537,-0.264 -2.035,-0.793c-0.497,-0.528 -0.746,-1.246 -0.746,-2.152Z" style="fill:#2e335d;fill-rule:nonzero;"/><path d="M313.654,85.6l-1.008,0.882c-0.26,0.219 -0.492,0.381 -0.695,0.485c-0.203,0.104 -0.398,0.156 -0.586,0.156c-0.307,0 -0.557,-0.124 -0.75,-0.371c-0.193,-0.247 -0.289,-0.574 -0.289,-0.98c0,-0.136 0.005,-0.274 0.016,-0.415c0.01,-0.14 0.026,-0.278 0.047,-0.414c-0.928,0.901 -1.606,1.5 -2.036,1.797c-0.429,0.297 -0.79,0.446 -1.082,0.446c-0.349,0 -0.642,-0.157 -0.879,-0.469c-0.237,-0.313 -0.355,-0.711 -0.355,-1.195c0,-0.428 0.148,-1.222 0.445,-2.383c0.037,-0.141 0.065,-0.25 0.086,-0.328c0.13,-0.516 0.224,-0.899 0.281,-1.149c0.058,-0.25 0.086,-0.414 0.086,-0.492c0,-0.141 -0.026,-0.249 -0.078,-0.324c-0.052,-0.076 -0.127,-0.114 -0.226,-0.114c-0.073,0 -0.201,0.037 -0.383,0.11c-0.182,0.073 -0.38,0.172 -0.594,0.297l-0.211,-0.547l0.258,-0.164c1.073,-0.693 1.755,-1.039 2.047,-1.039c0.292,0 0.527,0.11 0.707,0.332c0.18,0.221 0.269,0.511 0.269,0.871c0,0.443 -0.138,1.161 -0.414,2.156c-0.276,0.995 -0.414,1.701 -0.414,2.117c0,0.209 0.037,0.365 0.11,0.469c0.073,0.104 0.185,0.156 0.336,0.156c0.172,0 0.437,-0.13 0.797,-0.39c0.359,-0.261 0.812,-0.654 1.359,-1.18c0.13,-0.599 0.255,-1.233 0.375,-1.902c0.12,-0.67 0.247,-1.418 0.383,-2.246l1.953,-0.383c-0.057,0.208 -0.139,0.552 -0.246,1.031c-0.107,0.479 -0.233,1.086 -0.379,1.82l-0.195,0.946c-0.11,0.552 -0.191,0.993 -0.243,1.324c-0.052,0.331 -0.078,0.577 -0.078,0.738c0,0.146 0.025,0.257 0.074,0.332c0.05,0.076 0.122,0.113 0.215,0.113c0.089,0 0.223,-0.057 0.403,-0.171c0.179,-0.115 0.397,-0.287 0.652,-0.516l0.242,0.594Z" style="fill:#2e335d;fill-rule:nonzero;"/><path d="M315.296,87.154c0.333,-1.343 0.599,-2.545 0.797,-3.605c0.198,-1.06 0.297,-1.775 0.297,-2.145c0,-0.182 -0.037,-0.325 -0.11,-0.429c-0.073,-0.105 -0.171,-0.157 -0.296,-0.157c-0.115,0 -0.365,0.123 -0.75,0.368c-0.058,0.031 -0.099,0.057 -0.125,0.078l-0.274,-0.578l0.024,-0.016c1.182,-0.875 1.947,-1.313 2.296,-1.313c0.287,0 0.502,0.103 0.645,0.309c0.143,0.206 0.215,0.509 0.215,0.91c0,0.188 -0.016,0.414 -0.047,0.68c-0.031,0.266 -0.078,0.578 -0.141,0.937c0.703,-1.151 1.228,-1.908 1.575,-2.273c0.346,-0.365 0.675,-0.547 0.988,-0.547c0.208,0 0.38,0.076 0.515,0.227c0.136,0.151 0.204,0.349 0.204,0.593c0,0.136 -0.049,0.314 -0.145,0.536c-0.096,0.221 -0.251,0.506 -0.465,0.855c-0.114,-0.141 -0.229,-0.245 -0.344,-0.312c-0.114,-0.068 -0.229,-0.102 -0.343,-0.102c-0.224,0 -0.477,0.141 -0.758,0.422c-0.281,0.281 -0.659,0.773 -1.133,1.476c-0.172,0.704 -0.316,1.361 -0.434,1.973c-0.117,0.612 -0.207,1.194 -0.269,1.746l-1.922,0.367Z" style="fill:#2e335d;fill-rule:nonzero;"/><path d="M327.08,86.287c0.021,0 0.056,0.003 0.105,0.008c0.05,0.005 0.087,0.008 0.114,0.008c0.364,0 0.634,-0.094 0.808,-0.281c0.175,-0.188 0.348,-0.649 0.52,-1.383l1.476,-6.227c0.037,-0.151 0.064,-0.29 0.082,-0.418c0.018,-0.127 0.028,-0.233 0.028,-0.316c0,-0.287 -0.068,-0.481 -0.204,-0.582c-0.135,-0.102 -0.393,-0.153 -0.773,-0.153l-0.109,0l0.125,-0.671c0.333,0.02 0.652,0.036 0.957,0.046c0.304,0.011 0.59,0.016 0.855,0.016c0.287,0 0.582,-0.005 0.887,-0.016c0.305,-0.01 0.616,-0.026 0.933,-0.046c-0.005,0.01 -0.009,0.026 -0.011,0.046c-0.003,0.021 -0.004,0.058 -0.004,0.11c0,0.359 0.127,1.159 0.383,2.398c0.255,1.24 0.64,2.927 1.156,5.063c0.333,-0.584 0.792,-1.383 1.375,-2.399c1.771,-3.083 2.682,-4.823 2.734,-5.218c0.485,0.031 0.866,0.052 1.145,0.062c0.278,0.01 0.504,0.016 0.676,0.016c0.166,0 0.38,-0.006 0.64,-0.016c0.261,-0.01 0.646,-0.031 1.156,-0.062l-0.117,0.671c-0.031,0 -0.078,-0.002 -0.14,-0.007c-0.063,-0.006 -0.105,-0.008 -0.125,-0.008c-0.375,0 -0.638,0.082 -0.789,0.246c-0.151,0.164 -0.269,0.59 -0.352,1.277l-0.781,6.156c-0.021,0.162 -0.037,0.31 -0.047,0.446c-0.011,0.135 -0.016,0.242 -0.016,0.32c0,0.349 0.068,0.589 0.203,0.719c0.136,0.13 0.383,0.195 0.743,0.195l0.078,0l-0.133,0.656c-0.386,-0.031 -0.762,-0.054 -1.129,-0.07c-0.367,-0.016 -0.72,-0.023 -1.059,-0.023c-0.25,0 -0.562,0.007 -0.937,0.023c-0.375,0.016 -0.82,0.039 -1.336,0.07l0.141,-0.656c0.031,0 0.069,0.003 0.113,0.008c0.044,0.005 0.077,0.008 0.098,0.008c0.734,0 1.218,-0.792 1.453,-2.375l0.015,-0.149l0.867,-5.937l-4.031,7.039c-0.015,0.026 -0.036,0.062 -0.062,0.109c-0.407,0.703 -0.722,1.354 -0.946,1.953l-0.867,0c-0.057,-0.698 -0.187,-1.489 -0.39,-2.375l-0.024,-0.086l-1.437,-6.257l-1.375,6.429c-0.047,0.219 -0.081,0.392 -0.102,0.52c-0.021,0.127 -0.031,0.228 -0.031,0.301c0,0.286 0.073,0.493 0.219,0.621c0.145,0.127 0.382,0.191 0.711,0.191l0.195,0l-0.117,0.656c-0.391,-0.031 -0.749,-0.054 -1.075,-0.07c-0.325,-0.016 -0.605,-0.023 -0.839,-0.023c-0.204,0 -0.448,0.007 -0.735,0.023c-0.286,0.016 -0.62,0.039 -1,0.07l0.102,-0.656Z" style="fill:#2e335d;fill-rule:nonzero;"/><path d="M344.675,83.311l0.078,-0.039c1.677,-0.844 2.516,-1.524 2.516,-2.04c0,-0.25 -0.092,-0.47 -0.274,-0.66c-0.182,-0.19 -0.396,-0.285 -0.641,-0.285c-0.395,0 -0.742,0.264 -1.039,0.793c-0.296,0.529 -0.51,1.272 -0.64,2.231Zm2.304,-0.352l-2.335,1.117l0,0.211c0,0.49 0.097,0.874 0.293,1.152c0.195,0.279 0.464,0.418 0.808,0.418c0.255,0 0.557,-0.1 0.906,-0.3c0.349,-0.201 0.789,-0.528 1.321,-0.981l0.304,0.656c-0.718,0.678 -1.349,1.172 -1.89,1.485c-0.542,0.312 -1.037,0.469 -1.485,0.469c-0.64,0 -1.156,-0.25 -1.547,-0.75c-0.39,-0.5 -0.585,-1.17 -0.585,-2.008c0,-0.542 0.104,-1.123 0.312,-1.742c0.208,-0.62 0.484,-1.164 0.828,-1.633c0.401,-0.552 0.858,-0.978 1.371,-1.278c0.513,-0.299 1.038,-0.449 1.574,-0.449c0.568,0 1.046,0.171 1.434,0.512c0.388,0.341 0.582,0.751 0.582,1.23c0,0.646 -0.62,1.271 -1.859,1.875l-0.032,0.016Z" style="fill:#2e335d;fill-rule:nonzero;"/><path d="M350.512,87.154c0.094,-0.416 0.186,-0.862 0.277,-1.336c0.091,-0.474 0.202,-1.075 0.332,-1.804l0.164,-0.891c0.063,-0.385 0.112,-0.717 0.149,-0.996c0.036,-0.279 0.055,-0.491 0.055,-0.637c0,-0.208 -0.032,-0.359 -0.094,-0.453c-0.063,-0.094 -0.164,-0.14 -0.305,-0.14c-0.094,0 -0.206,0.026 -0.336,0.078c-0.13,0.052 -0.273,0.127 -0.43,0.226l-0.242,-0.562c0.177,-0.12 0.417,-0.287 0.719,-0.5c0.755,-0.542 1.268,-0.813 1.539,-0.813c0.281,0 0.514,0.12 0.699,0.36c0.185,0.239 0.278,0.546 0.278,0.921c0,0.157 -0.032,0.443 -0.094,0.86c-0.016,0.104 -0.029,0.185 -0.039,0.242c0.094,-0.094 0.226,-0.234 0.398,-0.422c1.245,-1.307 2.094,-1.961 2.547,-1.961c0.375,0 0.672,0.156 0.891,0.469c0.219,0.312 0.328,0.742 0.328,1.289c0,0.104 -0.004,0.208 -0.012,0.313c-0.008,0.104 -0.019,0.213 -0.035,0.328l0.305,-0.328c1.286,-1.381 2.174,-2.071 2.664,-2.071c0.39,0 0.702,0.138 0.933,0.414c0.232,0.276 0.348,0.651 0.348,1.125c0,0.5 -0.125,1.257 -0.375,2.27c-0.25,1.013 -0.375,1.722 -0.375,2.129c0,0.14 0.029,0.252 0.086,0.336c0.057,0.083 0.13,0.125 0.219,0.125c0.088,0 0.216,-0.06 0.383,-0.18c0.166,-0.12 0.375,-0.3 0.625,-0.539l0.257,0.594l-0.078,0.07c-1.067,0.99 -1.789,1.484 -2.164,1.484c-0.349,0 -0.62,-0.13 -0.812,-0.39c-0.193,-0.261 -0.289,-0.623 -0.289,-1.086c0,-0.495 0.112,-1.229 0.336,-2.203c0.223,-0.974 0.335,-1.67 0.335,-2.086c0,-0.146 -0.029,-0.265 -0.089,-0.356c-0.06,-0.091 -0.137,-0.136 -0.231,-0.136c-0.239,0 -0.789,0.406 -1.648,1.218c-0.224,0.209 -0.401,0.373 -0.532,0.492c-0.031,0.198 -0.08,0.485 -0.148,0.86c-0.276,1.594 -0.445,2.693 -0.508,3.297l-1.898,0.39c0.427,-2.213 0.696,-3.66 0.808,-4.34c0.112,-0.679 0.168,-1.154 0.168,-1.425c0,-0.146 -0.034,-0.265 -0.101,-0.356c-0.068,-0.091 -0.154,-0.136 -0.258,-0.136c-0.234,0 -0.773,0.393 -1.617,1.179c-0.245,0.229 -0.435,0.406 -0.571,0.531c-0.177,0.922 -0.319,1.715 -0.425,2.379c-0.107,0.664 -0.189,1.252 -0.246,1.762l-1.891,0.406Z" style="fill:#2e335d;fill-rule:nonzero;"/><path d="M366.013,85.467c0.167,0.213 0.348,0.375 0.543,0.484c0.196,0.11 0.4,0.164 0.613,0.164c0.605,0 1.118,-0.388 1.54,-1.164c0.421,-0.776 0.632,-1.739 0.632,-2.89c0,-0.448 -0.06,-0.787 -0.179,-1.016c-0.12,-0.229 -0.3,-0.344 -0.539,-0.344c-0.188,0 -0.433,0.098 -0.735,0.293c-0.302,0.195 -0.765,0.569 -1.39,1.121l-0.274,1.696c-0.068,0.474 -0.116,0.826 -0.144,1.058c-0.029,0.232 -0.051,0.431 -0.067,0.598Zm1.766,-10.719c-0.12,0.594 -0.236,1.194 -0.348,1.801c-0.112,0.607 -0.22,1.217 -0.324,1.832l-0.5,2.773l0.836,-0.773c0.469,-0.427 0.846,-0.718 1.133,-0.871c0.286,-0.154 0.575,-0.231 0.867,-0.231c0.542,0 0.975,0.224 1.301,0.672c0.325,0.448 0.488,1.05 0.488,1.805c0,0.63 -0.105,1.247 -0.316,1.851c-0.211,0.605 -0.517,1.162 -0.918,1.672c-0.48,0.615 -1.029,1.086 -1.649,1.414c-0.62,0.329 -1.271,0.493 -1.953,0.493c-0.453,0 -0.88,-0.106 -1.281,-0.317c-0.401,-0.211 -0.748,-0.512 -1.039,-0.902l1.539,-8.945c0.026,-0.152 0.045,-0.291 0.058,-0.418c0.013,-0.128 0.02,-0.228 0.02,-0.301c0,-0.172 -0.042,-0.294 -0.125,-0.367c-0.083,-0.073 -0.227,-0.11 -0.43,-0.11c-0.073,0 -0.195,0.008 -0.367,0.024c-0.031,0 -0.06,0.002 -0.086,0.007l-0.078,-0.593c0.51,-0.052 1.03,-0.121 1.559,-0.207c0.528,-0.086 1.066,-0.189 1.613,-0.309Z" style="fill:#2e335d;fill-rule:nonzero;"/><path d="M374.608,83.311l0.078,-0.039c1.677,-0.844 2.516,-1.524 2.516,-2.04c0,-0.25 -0.091,-0.47 -0.273,-0.66c-0.183,-0.19 -0.396,-0.285 -0.641,-0.285c-0.396,0 -0.742,0.264 -1.039,0.793c-0.297,0.529 -0.511,1.272 -0.641,2.231Zm2.305,-0.352l-2.336,1.117l0,0.211c0,0.49 0.098,0.874 0.293,1.152c0.195,0.279 0.465,0.418 0.809,0.418c0.255,0 0.557,-0.1 0.906,-0.3c0.349,-0.201 0.789,-0.528 1.32,-0.981l0.305,0.656c-0.719,0.678 -1.349,1.172 -1.891,1.485c-0.542,0.312 -1.036,0.469 -1.484,0.469c-0.641,0 -1.156,-0.25 -1.547,-0.75c-0.391,-0.5 -0.586,-1.17 -0.586,-2.008c0,-0.542 0.104,-1.123 0.312,-1.742c0.209,-0.62 0.485,-1.164 0.829,-1.633c0.401,-0.552 0.858,-0.978 1.371,-1.278c0.513,-0.299 1.037,-0.449 1.574,-0.449c0.568,0 1.045,0.171 1.434,0.512c0.388,0.341 0.582,0.751 0.582,1.23c0,0.646 -0.62,1.271 -1.86,1.875l-0.031,0.016Z" style="fill:#2e335d;fill-rule:nonzero;"/><path d="M380.477,87.154c0.333,-1.343 0.599,-2.545 0.797,-3.605c0.197,-1.06 0.296,-1.775 0.296,-2.145c0,-0.182 -0.036,-0.325 -0.109,-0.429c-0.073,-0.105 -0.172,-0.157 -0.297,-0.157c-0.114,0 -0.364,0.123 -0.75,0.368c-0.057,0.031 -0.099,0.057 -0.125,0.078l-0.273,-0.578l0.023,-0.016c1.182,-0.875 1.948,-1.313 2.297,-1.313c0.286,0 0.501,0.103 0.645,0.309c0.143,0.206 0.214,0.509 0.214,0.91c0,0.188 -0.015,0.414 -0.046,0.68c-0.032,0.266 -0.079,0.578 -0.141,0.937c0.703,-1.151 1.228,-1.908 1.574,-2.273c0.346,-0.365 0.676,-0.547 0.988,-0.547c0.209,0 0.381,0.076 0.516,0.227c0.135,0.151 0.203,0.349 0.203,0.593c0,0.136 -0.048,0.314 -0.144,0.536c-0.097,0.221 -0.252,0.506 -0.465,0.855c-0.115,-0.141 -0.229,-0.245 -0.344,-0.312c-0.115,-0.068 -0.229,-0.102 -0.344,-0.102c-0.224,0 -0.476,0.141 -0.758,0.422c-0.281,0.281 -0.658,0.773 -1.132,1.476c-0.172,0.704 -0.317,1.361 -0.434,1.973c-0.117,0.612 -0.207,1.194 -0.269,1.746l-1.922,0.367Z" style="fill:#2e335d;fill-rule:nonzero;"/><path d="M392.503,86.287c0.031,0.005 0.069,0.009 0.113,0.012c0.044,0.002 0.105,0.004 0.183,0.004c0.381,0 0.659,-0.132 0.836,-0.395c0.177,-0.263 0.368,-0.996 0.571,-2.199l0.836,-4.922c0.062,-0.354 0.104,-0.622 0.125,-0.805c0.02,-0.182 0.031,-0.325 0.031,-0.429c0,-0.209 -0.076,-0.362 -0.227,-0.461c-0.151,-0.099 -0.382,-0.149 -0.695,-0.149l-0.148,0l0.117,-0.671c0.401,0.026 0.844,0.045 1.328,0.058c0.484,0.013 1.229,0.02 2.234,0.02c0.912,0 1.72,-0.007 2.426,-0.02c0.706,-0.013 1.423,-0.032 2.152,-0.058c-0.099,0.416 -0.182,0.828 -0.25,1.234c-0.067,0.406 -0.117,0.81 -0.148,1.211l-0.703,0.031c0.005,-0.047 0.009,-0.094 0.012,-0.141c0.002,-0.046 0.003,-0.112 0.003,-0.195c0,-0.437 -0.136,-0.741 -0.41,-0.91c-0.273,-0.169 -0.777,-0.254 -1.511,-0.254l-2.11,0c-0.052,0.287 -0.153,0.849 -0.304,1.688c-0.152,0.838 -0.269,1.502 -0.352,1.992c0.297,0.01 0.595,0.018 0.895,0.023c0.299,0.005 0.678,0.008 1.136,0.008c0.677,0 1.111,-0.069 1.301,-0.207c0.19,-0.138 0.322,-0.405 0.395,-0.801l0.656,0.094c-0.141,0.49 -0.254,0.978 -0.34,1.465c-0.086,0.487 -0.145,0.97 -0.176,1.449l-0.648,0.016c0,-0.068 0.001,-0.134 0.004,-0.2c0.002,-0.065 0.004,-0.131 0.004,-0.199c0,-0.291 -0.098,-0.487 -0.293,-0.586c-0.196,-0.099 -0.684,-0.148 -1.465,-0.148l-0.688,0l-0.492,0l-0.437,0c-0.115,0.646 -0.228,1.303 -0.34,1.972c-0.112,0.67 -0.223,1.351 -0.332,2.043c0.359,0.032 0.737,0.055 1.132,0.071c0.396,0.015 0.857,0.023 1.383,0.023c0.922,0 1.539,-0.116 1.852,-0.347c0.312,-0.232 0.56,-0.702 0.742,-1.411l0.703,0.11c-0.13,0.463 -0.241,0.914 -0.332,1.351c-0.091,0.438 -0.168,0.868 -0.23,1.289c-0.808,-0.031 -1.599,-0.054 -2.375,-0.07c-0.776,-0.016 -1.532,-0.023 -2.266,-0.023c-0.594,0 -1.225,0.007 -1.894,0.023c-0.67,0.016 -1.382,0.039 -2.137,0.07l0.133,-0.656Z" style="fill:#2e335d;fill-rule:nonzero;"/><path d="M407.137,84.131c-0.912,1.292 -1.571,2.124 -1.977,2.496c-0.406,0.372 -0.789,0.559 -1.148,0.559c-0.287,0 -0.526,-0.084 -0.719,-0.25c-0.193,-0.167 -0.289,-0.373 -0.289,-0.618c0,-0.119 0.03,-0.234 0.09,-0.343c0.06,-0.11 0.152,-0.219 0.277,-0.328l0.422,-0.368c0.135,0.188 0.259,0.326 0.371,0.414c0.112,0.089 0.223,0.133 0.332,0.133c0.276,0 0.919,-0.643 1.93,-1.929c0.166,-0.214 0.297,-0.378 0.39,-0.493l-0.156,-0.398c-0.583,-1.557 -1.018,-2.336 -1.305,-2.336c-0.093,0 -0.211,0.039 -0.351,0.117c-0.141,0.078 -0.36,0.232 -0.656,0.461l-0.336,-0.547c0.078,-0.062 0.19,-0.153 0.336,-0.273c0.906,-0.735 1.578,-1.102 2.015,-1.102c0.516,0 1.058,0.794 1.625,2.383l0.11,0.289l0.203,-0.281c1.198,-1.625 2.083,-2.438 2.656,-2.438c0.266,0 0.49,0.076 0.672,0.227c0.182,0.151 0.273,0.336 0.273,0.555c0,0.14 -0.034,0.27 -0.101,0.39c-0.068,0.12 -0.183,0.253 -0.344,0.399l-0.289,0.273c-0.109,-0.146 -0.224,-0.26 -0.344,-0.344c-0.12,-0.083 -0.229,-0.125 -0.328,-0.125c-0.297,0 -0.88,0.547 -1.75,1.641c-0.135,0.172 -0.24,0.302 -0.312,0.391c0.052,0.14 0.125,0.343 0.218,0.609c0.615,1.687 1.073,2.531 1.375,2.531c0.162,0 0.49,-0.234 0.985,-0.703l0.101,-0.094l0.328,0.571c-0.64,0.672 -1.113,1.106 -1.418,1.304c-0.304,0.198 -0.6,0.297 -0.886,0.297c-0.573,0 -1.232,-1.002 -1.977,-3.008l-0.023,-0.062Z" style="fill:#2e335d;fill-rule:nonzero;"/><path d="M415.646,85.662c0.239,0.167 0.475,0.297 0.707,0.391c0.232,0.094 0.439,0.14 0.621,0.14c0.578,0 1.064,-0.401 1.457,-1.203c0.393,-0.802 0.59,-1.789 0.59,-2.961c0,-0.416 -0.059,-0.731 -0.176,-0.945c-0.117,-0.214 -0.293,-0.32 -0.527,-0.32c-0.297,0 -0.954,0.471 -1.969,1.414l-0.188,0.172l-0.515,3.312Zm0.468,-7.086l0.735,0.258c-0.083,0.276 -0.163,0.573 -0.238,0.891c-0.076,0.317 -0.15,0.677 -0.223,1.078l-0.133,0.656c0.063,-0.068 0.151,-0.161 0.266,-0.281c1.14,-1.193 2.013,-1.789 2.617,-1.789c0.531,0 0.96,0.235 1.285,0.707c0.326,0.471 0.488,1.105 0.488,1.902c0,0.62 -0.125,1.264 -0.375,1.934c-0.25,0.669 -0.583,1.251 -1,1.746c-0.401,0.474 -0.834,0.836 -1.3,1.086c-0.467,0.25 -0.939,0.375 -1.418,0.375c-0.224,0 -0.446,-0.03 -0.664,-0.09c-0.219,-0.06 -0.446,-0.155 -0.68,-0.285l-0.367,2.367c-0.016,0.104 -0.028,0.199 -0.035,0.285c-0.008,0.086 -0.012,0.163 -0.012,0.231c0,0.26 0.062,0.437 0.187,0.531c0.125,0.094 0.375,0.14 0.75,0.14l0.289,0l-0.132,0.657c-0.521,-0.026 -0.954,-0.046 -1.297,-0.059c-0.344,-0.013 -0.636,-0.019 -0.875,-0.019c-0.219,0 -0.478,0.005 -0.778,0.015c-0.299,0.011 -0.707,0.031 -1.222,0.063l0.117,-0.657l0.336,0c0.286,0 0.495,-0.075 0.625,-0.226c0.13,-0.151 0.229,-0.443 0.297,-0.875l1.093,-6.672c0.058,-0.375 0.122,-0.721 0.192,-1.039c0.07,-0.318 0.15,-0.628 0.238,-0.93l-1.437,0.914l-0.164,-0.625c0.531,-0.359 1.032,-0.729 1.503,-1.109c0.472,-0.38 0.916,-0.774 1.332,-1.18Z" style="fill:#2e335d;fill-rule:nonzero;"/><path d="M424.381,83.311l0.078,-0.039c1.678,-0.844 2.516,-1.524 2.516,-2.04c0,-0.25 -0.091,-0.47 -0.273,-0.66c-0.183,-0.19 -0.396,-0.285 -0.641,-0.285c-0.396,0 -0.742,0.264 -1.039,0.793c-0.297,0.529 -0.51,1.272 -0.641,2.231Zm2.305,-0.352l-2.336,1.117l0,0.211c0,0.49 0.098,0.874 0.293,1.152c0.195,0.279 0.465,0.418 0.809,0.418c0.255,0 0.557,-0.1 0.906,-0.3c0.349,-0.201 0.789,-0.528 1.32,-0.981l0.305,0.656c-0.719,0.678 -1.349,1.172 -1.891,1.485c-0.541,0.312 -1.036,0.469 -1.484,0.469c-0.641,0 -1.156,-0.25 -1.547,-0.75c-0.391,-0.5 -0.586,-1.17 -0.586,-2.008c0,-0.542 0.104,-1.123 0.313,-1.742c0.208,-0.62 0.484,-1.164 0.828,-1.633c0.401,-0.552 0.858,-0.978 1.371,-1.278c0.513,-0.299 1.038,-0.449 1.574,-0.449c0.568,0 1.046,0.171 1.434,0.512c0.388,0.341 0.582,0.751 0.582,1.23c0,0.646 -0.62,1.271 -1.86,1.875l-0.031,0.016Z" style="fill:#2e335d;fill-rule:nonzero;"/><path d="M430.25,87.154c0.333,-1.343 0.599,-2.545 0.797,-3.605c0.198,-1.06 0.297,-1.775 0.297,-2.145c0,-0.182 -0.037,-0.325 -0.11,-0.429c-0.073,-0.105 -0.172,-0.157 -0.297,-0.157c-0.114,0 -0.364,0.123 -0.75,0.368c-0.057,0.031 -0.099,0.057 -0.125,0.078l-0.273,-0.578l0.023,-0.016c1.183,-0.875 1.948,-1.313 2.297,-1.313c0.287,0 0.501,0.103 0.645,0.309c0.143,0.206 0.215,0.509 0.215,0.91c0,0.188 -0.016,0.414 -0.047,0.68c-0.032,0.266 -0.078,0.578 -0.141,0.937c0.703,-1.151 1.228,-1.908 1.574,-2.273c0.347,-0.365 0.676,-0.547 0.989,-0.547c0.208,0 0.38,0.076 0.515,0.227c0.136,0.151 0.203,0.349 0.203,0.593c0,0.136 -0.048,0.314 -0.144,0.536c-0.097,0.221 -0.252,0.506 -0.465,0.855c-0.115,-0.141 -0.229,-0.245 -0.344,-0.312c-0.114,-0.068 -0.229,-0.102 -0.344,-0.102c-0.224,0 -0.476,0.141 -0.757,0.422c-0.282,0.281 -0.659,0.773 -1.133,1.476c-0.172,0.704 -0.317,1.361 -0.434,1.973c-0.117,0.612 -0.207,1.194 -0.269,1.746l-1.922,0.367Z" style="fill:#2e335d;fill-rule:nonzero;"/><path d="M440.72,74.912l0.578,0.578c0.13,0.13 0.226,0.254 0.289,0.371c0.062,0.118 0.094,0.239 0.094,0.364c0,0.151 -0.052,0.289 -0.157,0.414c-0.104,0.125 -0.265,0.247 -0.484,0.367l-0.789,0.43l-0.539,-0.586l-0.031,-0.032c-0.245,-0.265 -0.367,-0.494 -0.367,-0.687c0,-0.156 0.049,-0.3 0.148,-0.43c0.099,-0.13 0.25,-0.25 0.453,-0.359l0.805,-0.43Zm0.289,10.078l0.265,0.61c-0.661,0.619 -1.164,1.036 -1.507,1.25c-0.344,0.213 -0.662,0.32 -0.953,0.32c-0.318,0 -0.568,-0.112 -0.75,-0.336c-0.183,-0.224 -0.274,-0.534 -0.274,-0.93c0,-0.338 0.143,-1.078 0.43,-2.218c0.036,-0.146 0.062,-0.253 0.078,-0.321c0.146,-0.578 0.255,-1.047 0.328,-1.406c0.073,-0.359 0.109,-0.617 0.109,-0.773c0,-0.131 -0.033,-0.236 -0.101,-0.317c-0.068,-0.081 -0.156,-0.121 -0.266,-0.121c-0.088,0 -0.2,0.029 -0.336,0.086c-0.135,0.057 -0.312,0.154 -0.531,0.289l-0.258,-0.547l1.078,-0.703c0.245,-0.167 0.476,-0.292 0.692,-0.375c0.216,-0.083 0.41,-0.125 0.582,-0.125c0.317,0 0.571,0.102 0.762,0.305c0.19,0.203 0.285,0.476 0.285,0.82c0,0.255 -0.118,0.849 -0.352,1.781c-0.094,0.37 -0.164,0.662 -0.211,0.875c-0.146,0.599 -0.249,1.058 -0.308,1.375c-0.06,0.318 -0.09,0.547 -0.09,0.688c0,0.146 0.026,0.259 0.078,0.34c0.052,0.08 0.127,0.121 0.226,0.121c0.099,0 0.227,-0.052 0.383,-0.156c0.156,-0.105 0.37,-0.282 0.641,-0.532Z" style="fill:#2e335d;fill-rule:nonzero;"/><path d="M444.752,83.311l0.078,-0.039c1.677,-0.844 2.516,-1.524 2.516,-2.04c0,-0.25 -0.091,-0.47 -0.273,-0.66c-0.183,-0.19 -0.396,-0.285 -0.641,-0.285c-0.396,0 -0.742,0.264 -1.039,0.793c-0.297,0.529 -0.511,1.272 -0.641,2.231Zm2.305,-0.352l-2.336,1.117l0,0.211c0,0.49 0.098,0.874 0.293,1.152c0.195,0.279 0.465,0.418 0.809,0.418c0.255,0 0.557,-0.1 0.906,-0.3c0.349,-0.201 0.789,-0.528 1.32,-0.981l0.305,0.656c-0.719,0.678 -1.349,1.172 -1.891,1.485c-0.541,0.312 -1.036,0.469 -1.484,0.469c-0.641,0 -1.156,-0.25 -1.547,-0.75c-0.391,-0.5 -0.586,-1.17 -0.586,-2.008c0,-0.542 0.104,-1.123 0.313,-1.742c0.208,-0.62 0.484,-1.164 0.828,-1.633c0.401,-0.552 0.858,-0.978 1.371,-1.278c0.513,-0.299 1.038,-0.449 1.574,-0.449c0.568,0 1.046,0.171 1.434,0.512c0.388,0.341 0.582,0.751 0.582,1.23c0,0.646 -0.62,1.271 -1.86,1.875l-0.031,0.016Z" style="fill:#2e335d;fill-rule:nonzero;"/><path d="M453.363,81.467l1.07,-0.985c0.511,-0.479 0.892,-0.786 1.145,-0.921c0.252,-0.136 0.509,-0.204 0.769,-0.204c0.417,0 0.746,0.144 0.989,0.43c0.242,0.287 0.363,0.677 0.363,1.172c0,0.49 -0.116,1.225 -0.348,2.207c-0.232,0.982 -0.347,1.676 -0.347,2.082c0,0.146 0.024,0.257 0.074,0.332c0.049,0.076 0.121,0.113 0.215,0.113c0.062,0 0.135,-0.02 0.218,-0.062c0.084,-0.042 0.167,-0.099 0.25,-0.172l0.493,-0.453l0.273,0.578l-0.719,0.656c-0.344,0.308 -0.64,0.534 -0.89,0.68c-0.25,0.146 -0.472,0.219 -0.664,0.219c-0.334,0 -0.596,-0.127 -0.786,-0.379c-0.19,-0.253 -0.285,-0.603 -0.285,-1.051c0,-0.448 0.112,-1.155 0.336,-2.121c0.224,-0.966 0.336,-1.665 0.336,-2.098c0,-0.172 -0.044,-0.308 -0.133,-0.41c-0.088,-0.101 -0.203,-0.152 -0.343,-0.152c-0.271,0 -0.834,0.37 -1.688,1.109c-0.208,0.182 -0.372,0.326 -0.492,0.43l-0.492,2.687c-0.078,0.396 -0.134,0.711 -0.168,0.946c-0.034,0.234 -0.059,0.455 -0.075,0.664l-1.953,0.375c0.328,-1.417 0.586,-2.63 0.774,-3.641c0.187,-1.01 0.281,-1.68 0.281,-2.008c0,-0.213 -0.035,-0.379 -0.105,-0.496c-0.071,-0.117 -0.168,-0.176 -0.293,-0.176c-0.094,0 -0.334,0.112 -0.719,0.336l-0.055,0.024l-0.234,-0.555c0.14,-0.094 0.336,-0.226 0.586,-0.398c0.823,-0.578 1.406,-0.868 1.75,-0.868c0.271,0 0.496,0.123 0.676,0.368c0.179,0.244 0.269,0.56 0.269,0.945c0,0.104 -0.006,0.223 -0.019,0.355c-0.014,0.133 -0.033,0.28 -0.059,0.442Z" style="fill:#2e335d;fill-rule:nonzero;"/><path d="M465.356,80.99l-0.5,0.43c-0.281,-0.349 -0.523,-0.592 -0.726,-0.731c-0.203,-0.138 -0.409,-0.207 -0.617,-0.207c-0.516,0 -0.933,0.325 -1.25,0.973c-0.318,0.649 -0.477,1.507 -0.477,2.574c0,0.563 0.091,0.998 0.273,1.305c0.183,0.307 0.438,0.461 0.766,0.461c0.219,0 0.492,-0.107 0.82,-0.32c0.329,-0.214 0.711,-0.529 1.149,-0.946l0.351,0.719c-0.666,0.693 -1.247,1.191 -1.742,1.496c-0.495,0.305 -0.963,0.457 -1.406,0.457c-0.62,0 -1.128,-0.264 -1.523,-0.793c-0.396,-0.528 -0.594,-1.22 -0.594,-2.074c0,-0.677 0.135,-1.345 0.406,-2.004c0.271,-0.659 0.648,-1.238 1.133,-1.738c0.406,-0.422 0.848,-0.738 1.324,-0.949c0.477,-0.211 0.991,-0.317 1.543,-0.317c0.427,0 0.781,0.094 1.063,0.281c0.281,0.188 0.421,0.42 0.421,0.696c0,0.125 -0.031,0.239 -0.093,0.344c-0.063,0.104 -0.17,0.218 -0.321,0.343Z" style="fill:#2e335d;fill-rule:nonzero;"/><path d="M468.951,83.311l0.078,-0.039c1.678,-0.844 2.516,-1.524 2.516,-2.04c0,-0.25 -0.091,-0.47 -0.273,-0.66c-0.183,-0.19 -0.396,-0.285 -0.641,-0.285c-0.396,0 -0.742,0.264 -1.039,0.793c-0.297,0.529 -0.51,1.272 -0.641,2.231Zm2.305,-0.352l-2.336,1.117l0,0.211c0,0.49 0.098,0.874 0.293,1.152c0.195,0.279 0.465,0.418 0.809,0.418c0.255,0 0.557,-0.1 0.906,-0.3c0.349,-0.201 0.789,-0.528 1.32,-0.981l0.305,0.656c-0.719,0.678 -1.349,1.172 -1.891,1.485c-0.541,0.312 -1.036,0.469 -1.484,0.469c-0.641,0 -1.156,-0.25 -1.547,-0.75c-0.391,-0.5 -0.586,-1.17 -0.586,-2.008c0,-0.542 0.104,-1.123 0.313,-1.742c0.208,-0.62 0.484,-1.164 0.828,-1.633c0.401,-0.552 0.858,-0.978 1.371,-1.278c0.513,-0.299 1.038,-0.449 1.574,-0.449c0.568,0 1.046,0.171 1.434,0.512c0.388,0.341 0.582,0.751 0.582,1.23c0,0.646 -0.62,1.271 -1.86,1.875l-0.031,0.016Z" style="fill:#2e335d;fill-rule:nonzero;"/></svg>