<svg xmlns="http://www.w3.org/2000/svg" width="793.99" height="720.19" viewBox="0 0 210.08 190.55"><path fill="#ef6e35" d="M74.76 0L0 190.51l10.48.01L85.08 0z"/><path fill="#4dc05f" d="M194.22 0l-76.64 190.5h17.91L210.08 0z"/><path fill="#9f2c93" d="M6.52 190.55L81.13 0h116.95L123.5 190.5zM166.67 165.94c-.12 0-.3-.04-.4-.07l-.3-.14a1.16 1.16 0 0 1-.46-.92c0-.11.12-.87.26-1.7a3164.97 3164.97 0 0 0 2.36-13.39c.06-.3.16-.66.21-.77.06-.12.2-.31.32-.43.13-.13.37-.3.54-.38.26-.13.37-.16.66-.16a1.1 1.1 0 0 1 .91.38c.06.08 1.12 1.99 2.34 4.23l2.77 5.1.56 1.01v1.06a6.98 6.98 0 0 0 .3 2.23 7.37 7.37 0 0 0 .88 1.83c.15.22.5.65.79.94l.52.53-.25.23c-.18.17-.32.25-.58.33a1.48 1.48 0 0 1-1.09-.05 1.1 1.1 0 0 1-.31-.26c-.07-.09-.38-.62-.69-1.19a27685.29 27685.29 0 0 0-5.67-10.38c-.04-.04-.08-.06-.09-.05l-.9 4.97c-.47 2.73-.9 5.17-.96 5.43-.05.26-.13.57-.19.68a2.1 2.1 0 0 1-.39.48c-.22.2-.35.28-.6.36-.17.05-.42.1-.54.1z"/><path fill="#9f2c93" d="M183.71 165.91h-.94l-.57-.1a7.2 7.2 0 0 1-1.67-.56 7.54 7.54 0 0 1-.79-.47 6.66 6.66 0 0 1-1.3-1.3l-.4-.62a7.33 7.33 0 0 1-.61-1.69 5.4 5.4 0 0 1-.1-1.36c0-.72.01-.99.12-1.57a384.42 384.42 0 0 0 .8-4.59 4199.23 4199.23 0 0 0 .78-4.37c.03-.1.1-.3.17-.43.07-.12.22-.31.34-.42.12-.1.33-.25.48-.32.22-.1.35-.13.66-.13.3 0 .43.02.58.1.1.06.25.17.32.24.07.08.16.22.2.32.05.1.08.3.08.46 0 .15-.05.58-.12.95a4882.02 4882.02 0 0 1-1.38 7.79l-.2 1.1.03.55c.02.44.06.65.17 1 .08.25.23.6.34.78.1.18.3.45.44.6a4.2 4.2 0 0 0 1.16.84 3.45 3.45 0 0 0 1.73.35 4.96 4.96 0 0 0 2.25-.54 6.83 6.83 0 0 0 1.72-1.26 7.13 7.13 0 0 0 1-1.48c.08-.2.2-.5.26-.7.05-.18.35-1.74.65-3.46l.83-4.68c.23-1.31.26-1.56.2-1.6a7.1 7.1 0 0 0-1.05-.04h-1.15a.4.4 0 0 1-.27-.12.4.4 0 0 1-.12-.26c0-.08.05-.2.12-.29.07-.08 1.15-.86 2.4-1.74a47.58 47.58 0 0 1 2.44-1.66c.1-.03.24-.05.32-.03.08.01.2.07.26.13.07.05.69.8 1.38 1.68.69.86 1.29 1.64 1.33 1.72.04.08.07.19.06.24 0 .06-.08.15-.15.2l-.14.1-1.22.03c-.67.01-1.23.04-1.24.05-.02.02-.06.2-.1.41a5738.5 5738.5 0 0 0-1.32 7.45c-.16.9-.34 1.8-.4 2.02a9.45 9.45 0 0 1-.69 1.74c-.14.27-.37.66-.5.86a11.43 11.43 0 0 1-1.28 1.52l-.63.56a12 12 0 0 1-1.72 1.1 10.17 10.17 0 0 1-2.37.8c-.23.05-.77.1-1.19.1z"/><path fill="#ef6e35" d="M153.29 178.3a.86.86 0 0 1-.22-.04c-.03-.01-.1-.08-.13-.16l-.07-.14.14-.78a1211.2 1211.2 0 0 0 1.08-6.14l.16-.89.13-.11a.46.46 0 0 1 .23-.11c.06 0 .15.03.21.07.06.04.42.66.81 1.38a2155.24 2155.24 0 0 0 2.86 5.2c.04.04.06.04.09 0 .02-.04.1-.4.17-.8a5309.54 5309.54 0 0 0 .92-5.29.82.82 0 0 1 .15-.37c.08-.1.17-.14.26-.14a.5.5 0 0 1 .26.1c.1.07.12.14.12.27 0 .1-.15 1.04-.34 2.1a4386.9 4386.9 0 0 1-.96 5.45c-.03.16-.09.27-.15.32a.52.52 0 0 1-.26.07.43.43 0 0 1-.22-.06c-.04-.03-.87-1.52-1.84-3.3l-1.81-3.3c-.02-.02-.05-.02-.07-.01a339.02 339.02 0 0 0-.86 4.73l-.27 1.5c-.03.15-.1.3-.15.35a.36.36 0 0 1-.24.1zM178.38 178.3a.6.6 0 0 1-.24-.06.39.39 0 0 1-.13-.17c-.04-.09 0-.34.1-.95a3211.9 3211.9 0 0 1 .96-5.52c.02-.14.01-.24-.02-.28a3.37 3.37 0 0 0-.83-.05 7.3 7.3 0 0 1-.85-.03c-.05-.01-.12-.09-.16-.17a.43.43 0 0 1-.04-.26.52.52 0 0 1 .13-.2l.1-.1h1.81l.05-.11c.03-.06.1-.4.17-.74.1-.49.14-.64.22-.7a.48.48 0 0 1 .26-.09c.1 0 .19.04.26.11.06.07.1.17.1.28 0 .09-.04.38-.1.64-.05.27-.08.51-.07.54.02.05.22.07.82.07.48 0 .84.02.9.05.07.03.15.12.19.2.04.1.04.16 0 .28a.44.44 0 0 1-.15.19c-.05.02-.49.04-.98.04-.65 0-.9.02-.93.07-.03.03-.13.5-.22 1.04a2850.66 2850.66 0 0 1-.98 5.58.57.57 0 0 1-.12.23.34.34 0 0 1-.25.1zM169.46 178.2c-.06 0-.16-.05-.22-.12a.38.38 0 0 1-.12-.28v-.15l1.47-1.62c.8-.88 1.49-1.64 1.51-1.68.03-.06-.2-.5-.85-1.69-.49-.88-.9-1.66-.92-1.73-.02-.1.01-.16.12-.28.08-.08.18-.14.22-.14.04 0 .13.02.2.05.06.03.18.18.28.35l.83 1.5c.36.67.7 1.22.72 1.22.04 0 .7-.69 1.46-1.53.77-.85 1.44-1.55 1.5-1.57.05-.02.16 0 .24.02.07.03.16.12.19.2.03.07.04.18.02.24-.02.07-.2.3-.4.52l-1.47 1.61c-.6.67-1.1 1.23-1.12 1.27-.01.03.38.78.87 1.67.68 1.22.9 1.64.9 1.77 0 .13-.04.2-.13.27-.07.05-.16.1-.2.1a.53.53 0 0 1-.2-.07 10 10 0 0 1-.9-1.52l-.85-1.53c-.03-.05-.05-.05-.12 0l-1.38 1.52c-.73.8-1.37 1.48-1.43 1.52a.46.46 0 0 1-.22.08z"/><path fill="#4dc05f" d="M185.56 178.3c-.2.02-.5.01-.67 0a3.53 3.53 0 0 1-.6-.15 3.81 3.81 0 0 1-.56-.27 2.75 2.75 0 0 1-1.3-2.42c0-.36.09-.94.38-2.62l.42-2.4a.83.83 0 0 1 .15-.37c.08-.1.17-.14.25-.14a.5.5 0 0 1 .24.08c.06.04.13.12.15.19.03.08-.03.54-.22 1.59l-.43 2.43c-.09.52-.16 1.1-.16 1.27 0 .22.04.44.11.66.07.18.2.44.31.58.1.14.3.32.42.4.12.09.35.2.5.26.22.09.36.1.82.1h.55l.35-.12c.2-.07.48-.2.64-.3a4.23 4.23 0 0 0 1.04-.97c.12-.17.28-.45.35-.63.1-.25.23-.84.53-2.49l.44-2.5c.04-.23.09-.36.17-.44a.38.38 0 0 1 .26-.11c.09 0 .19.04.26.12a.4.4 0 0 1 .12.26c0 .08-.07.56-.16 1.07a29424.99 29424.99 0 0 1-.7 3.86 5.02 5.02 0 0 1-.38.94l-.3.46a5.4 5.4 0 0 1-1.04 1 4.39 4.39 0 0 1-1.93.67zM191.96 169.92l-.14.14c-.11.11-.15.21-.22.61a440.33 440.33 0 0 1-.8 4.52l-.5 2.79.08.12c.03.07.12.15.18.18a.4.4 0 0 0 .24.04.53.53 0 0 0 .18-.08.53.53 0 0 0 .1-.2c.03-.09.16-.8.3-1.6.13-.79.26-1.47.28-1.51.04-.06.25-.08 1.26-.1l1.22-.02.36-.13c.19-.07.49-.22.66-.33.17-.11.43-.33.57-.49.14-.16.33-.43.43-.6.09-.18.2-.47.25-.64.05-.22.07-.43.05-.72a2.54 2.54 0 0 0-.12-.66 2.53 2.53 0 0 0-.27-.49 2.14 2.14 0 0 0-.94-.69l-.26-.1-1.46-.02zm.44.82l1.2.01 1.22.02.2.1c.1.06.26.2.35.29.09.1.19.26.23.35a1.99 1.99 0 0 1 0 1.1 2.62 2.62 0 0 1-.72.97l-.47.29c-.12.05-.36.11-.53.14a10.34 10.34 0 0 1-2.01 0c-.03-.05.03-.5.21-1.53l.29-1.6zM197.31 171.23l-.05-.08c-.02-.05 0-.27.06-.5.04-.23.07-.45.05-.48-.02-.03-.1-.05-.2-.05-.08 0-.16-.01-.18-.03-.02-.02 0-.06.02-.1.04-.04.2-.06.63-.06h.57v.1c0 .07-.04.1-.19.1-.1 0-.21.02-.26.05-.04.03-.12.26-.18.53-.06.3-.13.47-.17.49a.45.45 0 0 1-.1.03z"/><path fill="#9f2c93" d="M190.2 182.95c-.35 0-.47 0-.62-.09-.1-.05-.24-.14-.3-.2-.07-.06-.17-.2-.22-.3a.97.97 0 0 1-.1-.5c0-.25.03-.38.12-.56.07-.13.22-.33.33-.45.12-.11.33-.26.48-.33.2-.1.35-.14.63-.15l.37-.02.27.12c.15.07.27.16.27.2l-.03.09c-.02.01-.15-.03-.3-.1a.99.99 0 0 0-.58-.1c-.2.01-.4.06-.54.13a1.67 1.67 0 0 0-.72.7 1.28 1.28 0 0 0-.04.83c.03.08.1.19.16.25.05.07.19.16.3.2.12.06.3.1.5.1.22 0 .39-.04.57-.12l.3-.1c.02.02.04.06.04.1 0 .03-.1.11-.23.17a1.4 1.4 0 0 1-.66.13zM186.83 180.36c-.24 0-.46.02-.47.05a67.1 67.1 0 0 0-.45 2.33c-.02.12 0 .2.04.23.04.02.25.03.5.02a1.72 1.72 0 0 0 1.54-.97l.13-.26-.02-.36c-.01-.3-.04-.39-.16-.56a1.18 1.18 0 0 0-.4-.34l-.26-.14zm-.05.2h.18c.3.02.4.04.57.15.14.1.24.21.3.36.07.16.1.29.08.47-.01.13-.06.32-.11.42-.05.1-.17.27-.28.38-.1.1-.3.25-.44.3-.13.07-.37.13-.53.15a.84.84 0 0 1-.36-.02l-.07-.05.19-1.02c.1-.56.2-1.05.23-1.09.03-.04.1-.05.24-.05zM182.32 182.96c-.04 0-.08-.02-.1-.05-.01-.02.07-.58.2-1.24.12-.7.24-1.22.28-1.26.05-.04.09-.05.12-.02.02.02.2.3.37.62.18.32.36.58.4.59.04 0 .31-.25.6-.57.3-.32.57-.6.62-.63.05-.03.1-.03.13 0 .03.02-.04.52-.17 1.21a40.6 40.6 0 0 1-.24 1.26c-.02.05-.06.09-.1.09-.04 0-.07-.05-.07-.11s.07-.52.16-1.02c.1-.5.16-.92.14-.94 0-.01-.25.21-.52.5-.28.28-.53.51-.57.51-.03 0-.1-.04-.13-.08a6.17 6.17 0 0 1-.33-.53 2.24 2.24 0 0 0-.29-.45c-.02 0-.1.37-.19.8l-.2 1.07c-.03.15-.07.25-.11.25zM176.96 180.36l-.47.01-.47.02-.03.14a44.3 44.3 0 0 0-.43 2.35v.08h.56c.45 0 .58-.02.74-.1.1-.05.24-.17.32-.27.1-.13.13-.24.15-.45l.02-.27-.15-.17a1 1 0 0 1-.15-.2c0-.02.05-.1.12-.2a.65.65 0 0 0 .12-.4c0-.18-.03-.24-.16-.38zm-.42.2h.35l.11.11c.1.1.1.16.08.3a.64.64 0 0 1-.11.27.8.8 0 0 1-.24.16c-.09.04-.27.07-.4.07-.16 0-.25-.02-.27-.07a5.88 5.88 0 0 1 .1-.76c.03-.07.09-.09.38-.09zm-.54 1.1h.46l.45.02.12.14a.5.5 0 0 1 .09.14l.03.15-.03.15a.72.72 0 0 1-.07.16.8.8 0 0 1-.11.14.8.8 0 0 1-.14.11.54.54 0 0 1-.21.08l-.37.02h-.42v-.1l.05-.36.1-.47zM178.64 182.96c-.02 0-.06-.02-.07-.05-.02-.02.01-.27.07-.55l.1-.6c0-.06-.16-.37-.35-.68a2.3 2.3 0 0 1-.3-.65c0-.04.05-.07.08-.06.03.01.18.23.33.48.14.26.3.5.33.55l.06.07.54-.53c.3-.29.56-.53.6-.53.02 0 .05.03.05.07 0 .04-.23.32-.52.62-.29.3-.55.58-.57.63-.03.06-.09.3-.13.56a5 5 0 0 1-.13.56c-.02.06-.06.1-.09.1zM172.49 180.36l-.45.01-.45.02-.1.53-.24 1.26-.13.74.07.04c.04.03.18.05.31.05a2.29 2.29 0 0 0 .98-.2c.12-.06.31-.2.43-.32.11-.12.26-.33.33-.47.08-.19.12-.35.12-.54 0-.15-.03-.34-.06-.42a1.54 1.54 0 0 0-.18-.3 1.17 1.17 0 0 0-.38-.29zm-.68.2h.31c.18 0 .4.03.5.07.1.04.21.1.26.15a1.03 1.03 0 0 1 .27.7c0 .18-.03.33-.12.5-.07.14-.2.32-.3.4-.1.1-.28.21-.41.27-.14.06-.38.12-.53.14a.86.86 0 0 1-.36-.02c-.05-.03-.04-.2.11-1.02l.22-1.09zM166.72 180.36c-.3 0-.54.02-.56.05l-.2.95-.21 1.18c-.03.16-.04.31-.03.35.02.04.05.07.08.07s.07-.05.1-.11l.1-.47c.02-.2.07-.4.1-.45l.04-.09.38.02c.3.01.41.04.51.12l.14.1.01.36c.01.29.04.38.11.45.08.06.11.07.15.03.05-.04.05-.08 0-.16a1.02 1.02 0 0 1-.04-.39c0-.22-.01-.3-.1-.42l-.12-.16.17-.15c.1-.08.2-.2.25-.28a.77.77 0 0 0 .03-.65.64.64 0 0 0-.22-.25c-.13-.08-.24-.1-.69-.1zm-.35.2h.86l.13.11c.1.1.12.17.12.3 0 .12-.04.26-.1.35a.92.92 0 0 1-.28.25c-.12.07-.27.09-.54.09-.2 0-.38-.02-.4-.04a4 4 0 0 1 .16-.96zM163.95 183c-.37 0-.7-.01-.73-.03-.04 0-.07-.07-.07-.12 0-.06.1-.62.22-1.25l.24-1.2c.02-.02.37-.04.8-.04h.77l-.01.09-.02.08-.68.01-.69.02-.02.1-.1.47c-.04.2-.05.38-.03.4.02.02.28.04.58.04l.55.02.02.08.02.09h-1.21l-.05.1a4 4 0 0 0-.1.5l-.06.36.07.05a3 3 0 0 0 .65.04c.38 0 .6.02.62.06.02.03 0 .07-.03.1-.04.02-.37.03-.74.03zM169.38 183c-.57 0-.74 0-.78-.06-.04-.04 0-.36.16-1.26.12-.66.25-1.23.27-1.26.04-.04.24-.06.8-.05.63.01.75.03.75.09s-.1.07-.67.08c-.37.01-.69.03-.7.05a4.84 4.84 0 0 0-.18.89v.08h.54c.4 0 .56.02.6.07.03.03.04.08.02.1-.02.01-.28.03-.6.03-.39 0-.57.01-.6.06a2.2 2.2 0 0 0-.14.48c-.06.36-.06.44-.01.47.03.02.34.04.68.04h.61l-.01.09-.02.08-.72.02zM159.25 182.95c-.04 0-.09 0-.1-.02a30.36 30.36 0 0 1-.61-2.44c0-.07.02-.13.04-.13s.07.03.1.06l.27.95.26 1.01c.02.07.06.12.09.12s.26-.32.5-.72c.32-.5.5-.73.56-.74.07 0 .1.02.13.12a86.36 86.36 0 0 0 .38 1.35c.01.02.05.01.07-.01l.7-1.08c.35-.57.68-1.04.72-1.05.05 0 .07.02.07.07s-.34.63-.76 1.3c-.56.88-.78 1.2-.84 1.2-.07 0-.1-.05-.14-.17-.02-.1-.1-.43-.19-.74a1.8 1.8 0 0 0-.2-.56c-.03 0-.26.33-.52.73-.25.4-.5.74-.53.75zM156.53 180.39c-.34 0-.46.02-.65.1-.12.07-.32.22-.44.33a2 2 0 0 0-.32.44c-.08.16-.12.34-.13.57-.02.27 0 .38.08.53.05.1.16.25.23.32.08.07.2.16.28.2.11.06.24.08.56.07.34-.02.45-.04.62-.15.12-.07.3-.22.42-.33.1-.11.25-.32.31-.45.08-.17.1-.33.11-.58 0-.27-.02-.37-.12-.55a1.31 1.31 0 0 0-.33-.36l-.2-.14zm-.02.16a1.13 1.13 0 0 1 .44.1.95.95 0 0 1 .28.23c.03.03.06.1.09.15l.07.19a.75.75 0 0 1 0 .45 1.44 1.44 0 0 1-.37.67 1.6 1.6 0 0 1-.37.29l-.18.08-.29.07a.98.98 0 0 1-.6-.13 1.04 1.04 0 0 1-.32-.36.48.48 0 0 1-.04-.1 1.4 1.4 0 0 1-.02-.31c0-.13 0-.23.02-.31a.83.83 0 0 1 .09-.23 1.59 1.59 0 0 1 .95-.76l.25-.03zM153.64 180.37h-.27l-.52.02-.04.13a43.39 43.39 0 0 0-.4 2.37c.01.04.05.07.08.06.04-.01.1-.24.16-.5.05-.26.11-.5.13-.54.03-.04.18-.06.46-.06.32 0 .46-.02.62-.1.12-.05.27-.17.34-.26a.78.78 0 0 0 .15-.42.64.64 0 0 0-.06-.4.67.67 0 0 0-.24-.23c-.09-.05-.19-.07-.41-.07zm-.62.18h.4c.27 0 .46.03.55.07.07.04.15.11.16.15.02.05.03.15.03.24 0 .08-.05.23-.1.31a.92.92 0 0 1-.28.25c-.12.07-.27.09-.54.09-.2 0-.38-.02-.4-.05a10.15 10.15 0 0 1 .15-.98z"/><path fill="#4dc05f" d="M198.37 171.23c-.04 0-.08-.04-.1-.08-.01-.04.02-.28.08-.54l.13-.55c0-.04.05-.09.1-.1.03-.02.1-.02.13 0 .04.02.13.13.22.24.08.12.17.2.2.2.04 0 .2-.1.35-.23.16-.13.32-.24.35-.24.03 0 .08.03.1.07 0 .04-.04.32-.1.62-.1.36-.16.56-.21.58h-.12c-.03-.02-.04-.11-.03-.2l.06-.34c.02-.1.02-.15-.02-.15a.62.62 0 0 0-.22.12.6.6 0 0 1-.23.12c-.03 0-.13-.07-.2-.15-.08-.08-.15-.13-.17-.12-.02.01-.06.15-.1.3a2.2 2.2 0 0 1-.1.36c-.03.05-.08.09-.12.09z"/><path fill="#ef6e35" d="M165.71 170.47a5.52 5.52 0 0 0-1.17.15 5.2 5.2 0 0 0-1.31.62 5.56 5.56 0 0 0-1.23 1.23 4.83 4.83 0 0 0-.8 2.22 3.91 3.91 0 0 0 .2 1.45c.06.18.19.46.27.6a3.5 3.5 0 0 0 .96.98c.16.1.46.24.66.3l.47.15a5.66 5.66 0 0 0 1.41-.04 4.93 4.93 0 0 0 2.12-1.11c.17-.16.37-.37.44-.48a.7.7 0 0 0 .14-.3c0-.06-.06-.17-.12-.23a.39.39 0 0 0-.27-.12c-.12 0-.2.06-.47.33-.18.18-.44.42-.59.53a4.34 4.34 0 0 1-1.3.6 3.8 3.8 0 0 1-1.36.01c-.14-.03-.34-.1-.46-.16a2.44 2.44 0 0 1-1.2-1.37 3.48 3.48 0 0 1-.13-.71c-.02-.28-.01-.45.03-.52l.05-.1h6.49l.12-.12c.07-.07.13-.2.15-.34a3.61 3.61 0 0 0-.14-1.38c-.07-.21-.2-.53-.31-.7a2.99 2.99 0 0 0-1.27-1.16 2.76 2.76 0 0 0-1.37-.33zm-.1.76c.2 0 .4.02.54.04.16.03.43.13.6.2.18.09.42.26.6.43.19.2.33.39.44.63.1.2.2.5.23.7.03.18.04.37.03.42l-.04.08h-2.86c-1.76 0-2.87-.02-2.88-.05-.02-.02 0-.12.04-.22a4.06 4.06 0 0 1 2.32-2.07 3.14 3.14 0 0 1 .99-.16z"/></svg>